<svg width="159" height="194" viewBox="0 0 159 194" fill="none" xmlns="http://www.w3.org/2000/svg">
<rect y="12.4634" width="143" height="182" rx="20" transform="rotate(-5 0 12.4634)" fill="#AD61FF"/>
<path d="M44.0078 59.4625C43.0874 48.9427 46.9272 44.3666 53.3347 43.806C59.4553 43.2705 63.503 46.5783 64.2728 55.3767L64.3481 56.2374L73.9116 55.4007L73.7693 53.775C72.598 40.3861 63.563 34.0454 52.565 35.0076C41.0888 36.0117 33.0721 44.6151 34.3774 59.5341L36.8373 87.6507C38.1425 102.57 47.5314 109.65 59.0075 108.646C70.4837 107.642 78.5254 99.3258 77.2788 85.0762L77.1114 83.1635C75.8397 68.627 67.3617 62.0449 57.5113 62.9067C52.1558 63.3752 47.6538 65.8892 45.062 71.5125L44.0078 59.4625ZM46.3254 85.9533C45.5055 76.5811 49.2914 72.4916 55.7946 71.9226C62.489 71.3369 66.7364 74.7236 67.5563 84.0958L67.7069 85.8173C68.5102 94.9982 64.7409 99.279 58.2378 99.8479C51.7346 100.417 47.2876 96.9513 46.476 87.6747L46.3254 85.9533Z" fill="white"/>
<path d="M36.4942 139.767L41.2281 139.353C43.1288 139.187 44.1816 138.209 44.0263 136.434C43.9322 135.358 43.2956 134.691 42.3708 134.447C43.0404 134.045 43.4369 133.414 43.3569 132.499C43.2188 130.921 42.0396 130.247 40.4078 130.39L35.7098 130.801L36.4942 139.767ZM37.9131 132.235L39.9214 132.059C40.9076 131.973 41.2587 132.267 41.3167 132.931C41.3685 133.522 41.0786 133.927 40.0924 134.013L38.0841 134.189L37.9131 132.235ZM38.2253 135.803L40.5564 135.599C41.3992 135.525 41.8102 135.887 41.8683 136.55C41.9295 137.25 41.589 137.695 40.7462 137.769L38.4151 137.973L38.2253 135.803ZM50.4039 138.731C53.0219 138.502 54.8086 136.412 54.5685 133.669C54.3285 130.925 52.2061 129.177 49.5881 129.406C46.9701 129.635 45.1834 131.725 45.4235 134.469C45.6635 137.212 47.7859 138.96 50.4039 138.731ZM50.2313 136.758C48.8506 136.879 47.7164 135.894 47.5753 134.28C47.4341 132.667 48.38 131.5 49.7607 131.379C51.1414 131.258 52.2756 132.243 52.4168 133.857C52.558 135.471 51.6121 136.637 50.2313 136.758ZM59.3391 142.286L58.8481 136.673C59.6017 137.438 60.5764 137.841 61.6523 137.747C64.109 137.532 65.788 135.451 65.548 132.708C65.308 129.964 63.2932 128.207 60.8366 128.422C59.7607 128.516 58.8706 129.082 58.2614 129.967L58.1625 128.837L56.0107 129.025L57.1873 142.474L59.3391 142.286ZM61.2108 135.798C59.8301 135.918 58.6959 134.934 58.5547 133.32C58.4135 131.706 59.3594 130.539 60.7402 130.418C62.1209 130.297 63.255 131.282 63.3962 132.896C63.5374 134.51 62.5915 135.677 61.2108 135.798ZM69.1448 127.876L66.993 128.064L67.7774 137.03L69.9292 136.842L69.5166 132.126L73.7845 136.505L76.4742 136.269L71.8679 131.739L75.4567 127.324L72.6235 127.572L69.4868 131.785L69.1448 127.876ZM79.4133 126.978L77.0822 127.182L77.8666 136.147L90.2393 135.065L89.4549 126.099L87.3032 126.287L87.915 133.281L84.9563 133.54L84.3445 126.546L82.1927 126.735L82.8045 133.728L80.0251 133.971L79.4133 126.978ZM96.662 134.684C99.28 134.455 101.067 132.365 100.827 129.621C100.587 126.878 98.4642 125.13 95.8462 125.359C93.2282 125.588 91.4415 127.678 91.6815 130.422C91.9216 133.165 94.044 134.913 96.662 134.684ZM96.4894 132.711C95.1087 132.832 93.9745 131.847 93.8333 130.233C93.6921 128.619 94.638 127.453 96.0188 127.332C97.3995 127.211 98.5336 128.196 98.6748 129.81C98.816 131.424 97.8701 132.59 96.4894 132.711ZM105.205 133.756L104.593 126.762L108.09 126.456L108.702 133.45L110.853 133.261L110.069 124.296L102.269 124.978L103.053 133.944L105.205 133.756ZM117.278 132.88C119.896 132.651 121.683 130.561 121.443 127.818C121.203 125.074 119.08 123.327 116.462 123.556C113.844 123.785 112.058 125.874 112.298 128.618C112.538 131.361 114.66 133.109 117.278 132.88ZM117.106 130.908C115.725 131.028 114.591 130.043 114.449 128.43C114.308 126.816 115.254 125.649 116.635 125.528C118.016 125.407 119.15 126.392 119.291 128.006C119.432 129.62 118.486 130.787 117.106 130.908ZM123.669 132.14L128.403 131.726C130.304 131.56 131.357 130.582 131.202 128.807C131.107 127.731 130.471 127.064 129.546 126.82C130.216 126.418 130.612 125.787 130.532 124.872C130.394 123.294 129.215 122.621 127.583 122.763L122.885 123.174L123.669 132.14ZM125.088 124.608L127.097 124.432C128.083 124.346 128.434 124.64 128.492 125.304C128.544 125.896 128.254 126.3 127.268 126.387L125.259 126.562L125.088 124.608ZM125.4 128.176L127.732 127.972C128.574 127.899 128.985 128.26 129.043 128.924C129.105 129.623 128.764 130.068 127.921 130.142L125.59 130.346L125.4 128.176ZM40.6505 162.491L40.3431 158.977L44.1087 158.647L44.4162 162.162L46.5679 161.974L45.7835 153.008L43.6318 153.196L43.9361 156.675L40.1705 157.004L39.8661 153.525L37.7144 153.714L38.4988 162.679L40.6505 162.491ZM51.6056 161.713C52.8429 161.605 53.8437 161.066 54.325 159.958L54.441 161.285L56.557 161.1L56.011 154.859C55.8275 152.761 53.9279 152.115 51.9554 152.287C49.9471 152.463 48.1248 153.526 48.3287 155.857L50.5701 155.661C50.4823 154.657 51.1182 154.077 52.1044 153.991C53.0369 153.909 53.7902 154.259 53.8514 154.958C54.0083 156.751 48.0299 155.54 48.3672 159.395C48.5257 161.206 50.0635 161.848 51.6056 161.713ZM50.5602 159.058C50.4598 157.911 52.699 157.896 54.0818 157.178L54.1179 157.591C54.2371 158.954 53.1522 159.771 51.897 159.881C51.1798 159.944 50.6152 159.686 50.5602 159.058ZM64.285 151.389L62.1332 151.577L62.9176 160.543L65.0694 160.355L64.6568 155.639L68.9246 160.018L71.6144 159.782L67.008 155.252L70.5969 150.837L67.7637 151.085L64.627 155.298L64.285 151.389ZM77.3381 160.221L79.8612 150.026L77.7094 150.215L76.054 157.316L73.2086 150.608L71.0568 150.797L75.2924 160.382C74.8822 161.683 74.3063 162.329 73.3022 162.417C72.8718 162.455 72.4515 162.401 72.1014 162.323L72.2677 164.224C72.6178 164.302 73.1457 164.346 73.6657 164.301C75.943 164.101 76.778 162.493 77.3381 160.221ZM84.4842 163.173L83.9932 157.561C84.7467 158.326 85.7215 158.729 86.7974 158.635C89.254 158.42 90.9331 156.339 90.6931 153.596C90.4531 150.852 88.4383 149.095 85.9817 149.31C84.9058 149.404 84.0157 149.97 83.4065 150.855L83.3076 149.725L81.1558 149.913L82.3324 163.362L84.4842 163.173ZM86.3559 156.686C84.9752 156.806 83.841 155.822 83.6998 154.208C83.5586 152.594 84.5045 151.427 85.8852 151.306C87.266 151.185 88.4001 152.17 88.5413 153.784C88.6825 155.398 87.7366 156.565 86.3559 156.686ZM98.547 151.987L100.806 151.79C100.395 149.567 98.4164 148.222 95.9956 148.434C93.4135 148.66 91.6627 150.747 91.9027 153.49C92.1427 156.234 94.2293 157.984 96.8114 157.758C99.3039 157.54 101.067 155.796 100.967 153.42L98.7436 153.614C98.6788 154.939 97.7685 155.687 96.6388 155.786C95.294 155.904 94.1957 154.916 94.0545 153.302C93.9133 151.688 94.8233 150.524 96.1682 150.407C97.2979 150.308 98.3 150.816 98.547 151.987ZM111.035 152.539C111.033 152.304 111.03 152.07 111.009 151.819C110.768 149.075 108.718 147.321 106.154 147.545C103.589 147.77 101.874 149.853 102.114 152.597C102.355 155.34 104.405 157.094 106.969 156.87C109.085 156.685 110.557 155.544 110.932 153.632L108.601 153.836C108.369 154.489 107.845 154.896 106.894 154.979C105.567 155.095 104.641 154.417 104.293 153.129L111.035 152.539ZM106.318 149.428C107.574 149.318 108.461 149.963 108.804 151.198L104.178 151.603C104.301 150.327 105.063 149.538 106.318 149.428Z" fill="white"/>
</svg>
