<svg width="159" height="63" viewBox="0 0 159 63" fill="none" xmlns="http://www.w3.org/2000/svg">
<path d="M1.6373 26.3808C6.52616 35.8296 7.99562 46.6984 5.79137 57.1061C4.9418 61.1162 7.37353 63.3712 11.285 62.1598C50.1619 50.1316 112.968 41.6402 153.647 42.9124C157.736 43.0421 159.485 40.2184 157.601 36.5814C152.712 27.1326 151.243 16.2638 153.447 5.85609C154.297 1.84599 151.865 -0.408953 147.954 0.802443C109.077 12.8306 46.2669 21.3225 5.59176 20.0498C1.5025 19.9201 -0.246633 22.7403 1.6373 26.3808Z" fill="#FF6D00"/>
<path d="M22.2556 32.1623C20.582 32.3885 19.2413 33.3837 18.4461 34.8393L17.3486 26.7213L14.8507 27.059L17.3836 45.7928L19.8814 45.4551L19.6281 43.5817C20.7813 44.7739 22.3381 45.3773 24.0116 45.1511C27.4337 44.6884 29.6451 41.6679 29.1284 37.8462C28.6117 34.0244 25.6776 31.6996 22.2556 32.1623ZM22.2665 34.5008C24.4396 34.207 26.2895 35.661 26.6306 38.1839C26.9717 40.7067 25.5743 42.5998 23.4012 42.8936C21.2281 43.1874 19.3782 41.7333 19.0371 39.2105C18.696 36.6877 20.0934 34.7946 22.2665 34.5008ZM31.2496 28.4282C32.2238 28.2965 32.8002 27.4809 32.6719 26.5317C32.5436 25.5826 31.7746 24.9743 30.8004 25.106C29.8513 25.2344 29.2464 26.0283 29.3748 26.9775C29.5031 27.9267 30.3004 28.5565 31.2496 28.4282ZM34.5552 43.4712L32.8666 30.982L30.3688 31.3197L32.0573 43.8089L34.5552 43.4712ZM42.3312 36.5953L42.0205 34.2973L35.9757 35.1145L36.2864 37.4125L42.3312 36.5953ZM53.4491 33.2608L56.0468 32.9096C55.3249 29.8278 52.4685 28.0775 49.1713 28.5232C45.5994 29.0062 43.313 32.0368 43.8297 35.8585C44.3464 39.6803 47.3555 41.995 50.9274 41.5121C54.3245 41.0528 56.65 38.5001 56.4041 35.1759L53.8063 35.5271C53.8368 37.6341 52.4401 38.9675 50.6167 39.214C48.4935 39.5011 46.6687 38.0437 46.3276 35.5208C45.9865 32.998 47.3588 31.1083 49.482 30.8213C51.2805 30.5781 52.9426 31.3962 53.4491 33.2608ZM70.489 38.613L68.8004 26.1237L65.6281 26.5526L61.2555 37.2924L59.9081 27.326L57.5101 27.6502L59.1987 40.1394L62.371 39.7105L66.7436 28.9708L68.091 38.9372L70.489 38.613ZM81.333 29.4909L83.9308 29.1397C83.2089 26.0579 80.3525 24.3075 77.0553 24.7533C73.4834 25.2362 71.197 28.2669 71.7137 32.0886C72.2304 35.9103 75.2395 38.2251 78.8114 37.7421C82.2085 37.2828 84.534 34.7301 84.2881 31.406L81.6903 31.7572C81.7208 33.8642 80.3241 35.1976 78.5007 35.4441C76.3775 35.7312 74.5526 34.2737 74.2116 31.7509C73.8705 29.2281 75.2428 27.3384 77.366 27.0513C79.1644 26.8082 80.8266 27.6263 81.333 29.4909ZM91.7648 35.7365L90.3869 25.5452L94.4334 24.9982L94.1227 22.7001L83.5319 24.132L83.8425 26.43L87.8891 25.883L89.2669 36.0742L91.7648 35.7365ZM107.83 28.0705C107.817 27.7924 107.805 27.5143 107.765 27.2145C107.248 23.3928 104.289 21.0713 100.742 21.5509C97.195 22.0304 94.9586 25.0543 95.4753 28.876C95.992 32.6978 98.9511 35.0192 102.498 34.5397C105.371 34.1513 107.351 32.4337 107.778 29.7563L105.08 30.121C104.732 31.3126 103.824 32.1221 102.301 32.3281C100.203 32.6117 98.6315 31.527 98.038 29.3944L107.83 28.0705ZM101.039 23.749C103.037 23.4788 104.58 24.542 105.163 26.5997L97.8198 27.5925C97.8359 25.4538 99.0158 24.0225 101.039 23.749ZM119.265 32.0184L121.304 20.7549L122.762 31.5456L125.26 31.2079L123.572 18.7186L119.425 19.2792L117.719 29.9891L113.231 20.1167L109.009 20.6875L110.698 33.1767L112.996 32.866L111.537 22.0753L116.468 32.3966L119.265 32.0184ZM137.773 25.243C137.439 22.7701 135.436 21.3114 132.414 21.72L129.641 22.0948L129.084 17.9734L126.586 18.3111L128.274 30.8004L133.57 30.0844C136.692 29.6623 138.108 27.7159 137.773 25.243ZM142.737 28.845L141.048 16.3558L138.551 16.6935L140.239 29.1827L142.737 28.845ZM132.497 23.8452C134.196 23.6156 135.086 24.1819 135.272 25.5557C135.455 26.9046 134.76 27.787 133.061 28.0166L130.489 28.3645L129.925 24.193L132.497 23.8452Z" fill="white"/>
</svg>
