<svg width="123" height="138" viewBox="0 0 123 138" fill="none" xmlns="http://www.w3.org/2000/svg">
<path d="M2.0199 100.664C0.755605 102.338 1.77366 104.754 3.85503 105.018L25.1808 107.725C29.0147 108.211 32.313 110.701 33.8294 114.256L42.521 134.623C43.3446 136.553 45.9468 136.871 47.2112 135.196L110.9 50.8507C112.804 48.3289 113.209 44.9735 111.962 42.0585L103.128 21.3344C101.884 18.4153 99.1769 16.3709 96.0288 15.9736L73.6812 13.1463C70.529 12.7459 67.4166 14.0569 65.5124 16.5787L2.0199 100.664Z" fill="#40E687"/>
<path d="M49.4127 86.9804C49.1083 86.7039 48.804 86.4274 48.4475 86.1582C43.9021 82.726 38.3903 83.4154 35.2049 87.634C32.0194 91.8526 32.8652 97.3425 37.4106 100.775C41.956 104.207 47.4678 103.518 50.6532 99.299C53.233 95.8825 53.4912 92.0192 51.1267 88.7877L48.704 91.9962C49.5922 93.5998 49.497 95.3938 48.1286 97.206C46.2443 99.7015 43.4729 100.221 40.6191 98.626L49.4127 86.9804ZM37.8192 89.6081C39.6138 87.2314 42.333 86.7191 45.0977 88.2469L38.5025 96.9812C36.2762 94.7403 36.0022 92.0144 37.8192 89.6081ZM58.8049 87.8856L56.3148 79.7547L65.0412 79.6267L67.6658 76.1508L55.6636 76.2309L52.5873 65.2316L49.9627 68.7075L52.1866 76.2643L44.175 76.3722L41.5504 79.8481L52.8826 79.7286L56.1803 91.3615L58.8049 87.8856ZM67.5842 57.6642L69.9172 54.5745C65.9344 52.127 61.1284 53.3026 58.1673 57.2241C54.9594 61.4724 55.7603 67.0217 60.3057 70.4539C64.8511 73.8861 70.4077 73.1373 73.6156 68.889C76.6664 64.8487 76.4075 59.7553 72.6655 56.5565L70.3325 59.6461C72.574 61.8051 72.52 64.6565 70.8824 66.8252C68.9757 69.3504 65.5495 69.7488 62.549 67.4831C59.5484 65.2174 58.9937 61.8131 60.9004 59.2879C62.5156 57.1489 65.102 56.2564 67.5842 57.6642ZM84.5221 40.4837C84.2177 40.2073 83.9133 39.9308 83.5568 39.6616C79.0115 36.2294 73.4997 36.9188 70.3143 41.1374C67.1288 45.356 67.9746 50.8459 72.52 54.2781C77.0654 57.7103 82.5771 57.0209 85.7626 52.8023C88.3423 49.3859 88.6006 45.5226 86.236 42.2911L83.8133 45.4996C84.7015 47.1032 84.6064 48.8972 83.238 50.7094C81.3536 53.2049 78.5823 53.7245 75.7285 52.1294L84.5221 40.4837ZM72.9286 43.1114C74.7232 40.7348 77.4424 40.2225 80.2071 41.7503L73.6119 50.4845C71.3856 48.2437 71.1115 45.5178 72.9286 43.1114ZM95.1032 39.8145L72.8219 22.99L70.5787 25.9608L92.8599 42.7853L95.1032 39.8145Z" fill="white"/>
</svg>
