<svg width="84" height="94" viewBox="0 0 84 94" fill="none" xmlns="http://www.w3.org/2000/svg">
<path d="M1.62392 68.5256C0.767875 69.6593 1.45719 71.2948 2.86648 71.4737L17.306 73.3066C19.9019 73.6353 22.1352 75.3216 23.1619 77.7284L29.0469 91.5187C29.6046 92.8255 31.3665 93.041 32.2227 91.9071L75.346 34.7973C76.6353 33.0898 76.9094 30.8179 76.0651 28.8442L70.0837 14.812C69.2415 12.8355 67.4082 11.4513 65.2767 11.1823L50.1453 9.26788C48.0109 8.99677 45.9036 9.88444 44.6143 11.592L1.62392 68.5256Z" fill="#40E687"/>
<path d="M33.6972 59.2476C33.4911 59.0604 33.285 58.8732 33.0437 58.691C29.966 56.3671 26.234 56.8338 24.0772 59.6902C21.9204 62.5466 22.493 66.2638 25.5707 68.5877C28.6483 70.9116 32.3803 70.4448 34.5371 67.5885C36.2839 65.2752 36.4587 62.6594 34.8577 60.4714L33.2173 62.6438C33.8187 63.7296 33.7543 64.9443 32.8278 66.1714C31.5519 67.8611 29.6754 68.2129 27.7431 67.1328L33.6972 59.2476ZM25.8473 61.0268C27.0625 59.4176 28.9036 59.0707 30.7756 60.1052L26.31 66.0191C24.8026 64.5018 24.617 62.6562 25.8473 61.0268ZM40.0566 59.8606L38.3706 54.3552L44.2791 54.2685L46.0562 51.915L37.9297 51.9693L35.8467 44.5217L34.0696 46.8752L35.5754 51.9918L30.1508 52.0649L28.3737 54.4184L36.0467 54.3375L38.2795 62.2141L40.0566 59.8606ZM46.001 39.3979L47.5806 37.3059C44.884 35.6486 41.6298 36.4446 39.6249 39.0998C37.4528 41.9763 37.9952 45.7338 41.0728 48.0577C44.1504 50.3816 47.9128 49.8746 50.0848 46.9981C52.1505 44.2624 51.9752 40.8137 49.4415 38.6478L47.8619 40.7398C49.3795 42.2017 49.343 44.1323 48.2342 45.6007C46.9432 47.3105 44.6233 47.5802 42.5917 46.0462C40.56 44.5121 40.1844 42.207 41.4755 40.4972C42.5691 39.0489 44.3203 38.4446 46.001 39.3979ZM57.4695 27.7651C57.2634 27.5779 57.0574 27.3907 56.816 27.2084C53.7383 24.8845 50.0063 25.3513 47.8495 28.2077C45.6927 31.064 46.2654 34.7812 49.343 37.1052C52.4206 39.4291 56.1526 38.9623 58.3095 36.1059C60.0562 33.7927 60.2311 31.1769 58.63 28.9888L56.9896 31.1613C57.591 32.2471 57.5266 33.4618 56.6001 34.6888C55.3242 36.3785 53.4477 36.7303 51.5154 35.6503L57.4695 27.7651ZM49.6197 29.5443C50.8348 27.9351 52.6759 27.5882 54.5479 28.6227L50.0823 34.5366C48.5749 33.0193 48.3893 31.1736 49.6197 29.5443ZM64.6339 27.3119L49.5474 15.9202L48.0286 17.9317L63.115 29.3235L64.6339 27.3119Z" fill="white"/>
</svg>
