<svg width="110" height="72" viewBox="0 0 110 72" fill="none" xmlns="http://www.w3.org/2000/svg">
<path d="M78.8141 65.1623L18.5257 42.8895C8.69639 39.2582 3.67236 28.3366 7.30636 18.5L7.36816 18.3327C11.0022 8.49614 21.9201 3.46406 31.7494 7.09538L92.0377 29.3681C101.867 32.9994 106.891 43.921 103.257 53.7576L103.195 53.9249C99.5613 63.7615 88.6434 68.7936 78.8141 65.1623Z" fill="#00C1FF"/>
<path d="M18.3193 35.9836L21.1581 28.2993C21.6173 29.8931 22.7091 31.1563 24.2933 31.7416C27.5325 32.9382 30.9024 31.308 32.2389 27.6905C33.5753 24.073 32.0746 20.6434 28.8354 19.4468C27.2513 18.8615 25.6004 19.1115 24.2154 20.024L24.8705 18.2507L22.5061 17.3772L15.9549 35.1101L18.3193 35.9836ZM24.8132 29.4615C22.7561 28.7016 21.8045 26.5497 22.6868 24.1616C23.569 21.7736 25.6911 20.7572 27.7481 21.5172C29.8051 22.2771 30.7567 24.429 29.8745 26.817C28.9923 29.2051 26.8702 30.2214 24.8132 29.4615ZM36.8354 37.6112L46.3499 26.1859L43.9855 25.3125L36.9209 33.9614L37.1524 22.7881L34.7881 21.9146L34.6217 36.7664C33.1837 38.3311 32.0567 38.909 30.5671 38.3587C29.9996 38.149 29.4995 37.8299 29.1027 37.5221L28.334 39.6027C28.7308 39.9106 29.3492 40.2734 30.0112 40.5179C32.9194 41.5923 34.803 40.0579 36.8354 37.6112ZM47.7367 35.5388L49.8418 29.8406L53.2465 31.0985L54.0152 29.0178L50.6105 27.76L51.9033 24.2607L49.5389 23.3872L48.2461 26.8865L46.3073 26.1702L45.5386 28.2509L47.4774 28.9671L45.3199 34.8072C44.132 38.0227 45.4464 39.5563 47.7162 40.3948C48.4019 40.6481 49.1872 40.7771 49.6652 40.7924L50.4426 38.6881C49.9883 38.6815 49.4892 38.5777 48.969 38.3856C47.5977 37.8789 47.1951 37.0047 47.7367 35.5388ZM62.2435 38.1573L59.8588 44.6121L62.2232 45.4856L64.7825 38.5579C66.0666 35.0823 64.7629 32.7197 62.1857 31.7676C60.6252 31.1911 59.054 31.4436 57.8144 32.5442L60.6882 24.7653L58.3238 23.8918L51.7726 41.6247L54.137 42.4982L56.5217 36.0435C57.3864 33.7027 58.9108 32.9223 60.6841 33.5774C62.4573 34.2326 63.1082 35.8166 62.2435 38.1573ZM69.9663 48.6149C73.3947 49.8814 76.8828 48.2949 78.2193 44.6774C79.5557 41.0599 77.9368 37.5866 74.5085 36.3201C71.0801 35.0535 67.5919 36.64 66.2555 40.2575C64.9191 43.875 66.538 47.3483 69.9663 48.6149ZM70.7699 46.4396C68.7129 45.6797 67.7377 43.519 68.6199 41.131C69.5021 38.743 71.6478 37.7353 73.7049 38.4953C75.7619 39.2552 76.7371 41.4159 75.8549 43.8039C74.9727 46.1919 72.8269 47.1996 70.7699 46.4396ZM88.4759 47.8485L86.0913 54.3033L88.4557 55.1768L91.015 48.2491C92.299 44.7735 90.9953 42.4109 88.4182 41.4588C86.8577 40.8823 85.2865 41.1348 84.0469 42.2354L84.7369 40.3675L82.3726 39.494L78.0051 51.316L80.3695 52.1895L82.7541 45.7347C83.6189 43.3939 85.1432 42.6136 86.9165 43.2687C88.6898 43.9238 89.3407 45.5078 88.4759 47.8485Z" fill="white"/>
</svg>
