<svg width="162" height="98" viewBox="0 0 162 98" fill="none" xmlns="http://www.w3.org/2000/svg">
<path d="M115.361 96.0175L26.3209 63.1229C11.8039 57.7598 4.38392 41.6296 9.75097 27.102L9.84224 26.8549C15.2093 12.3272 31.334 4.89534 45.851 10.2584L134.891 43.1531C149.408 48.5162 156.828 64.6463 151.461 79.174L151.37 79.421C146.002 93.9487 129.878 101.381 115.361 96.0175Z" fill="#00C1FF"/>
<path d="M26.0047 52.9532L30.1974 41.6044C30.8755 43.9582 32.4881 45.8239 34.8277 46.6882C39.6117 48.4556 44.5887 46.048 46.5625 40.7053C48.5363 35.3626 46.32 30.2974 41.536 28.53C39.1964 27.6657 36.7582 28.0349 34.7126 29.3825L35.6802 26.7635L32.1882 25.4735L22.5127 51.6632L26.0047 52.9532ZM35.5955 43.3208C32.5575 42.1985 31.152 39.0203 32.455 35.4934C33.758 31.9665 36.8921 30.4655 39.9301 31.5878C42.9681 32.7102 44.3735 35.8883 43.0706 39.4152C41.7676 42.9421 38.6335 44.4432 35.5955 43.3208ZM53.3512 55.3571L67.4031 38.4831L63.9112 37.1931L53.4774 49.9667L53.8194 33.4648L50.3274 32.1748L50.0817 54.1095C47.958 56.4204 46.2934 57.2738 44.0935 56.4611C43.2554 56.1514 42.5168 55.6801 41.9307 55.2255L40.7954 58.2984C41.3815 58.7531 42.2948 59.2889 43.2725 59.6501C47.5676 61.2369 50.3494 58.9707 53.3512 55.3571ZM69.4513 52.2964L72.5604 43.8807L77.5888 45.7384L78.724 42.6655L73.6956 40.8078L75.6049 35.6397L72.1129 34.3497L70.2036 39.5178L67.3402 38.4599L66.205 41.5328L69.0684 42.5907L65.8819 51.2158C64.1275 55.9649 66.0687 58.2298 69.421 59.4683C70.4337 59.8424 71.5936 60.0328 72.2995 60.0555L73.4477 56.9476C72.7767 56.9378 72.0396 56.7846 71.2713 56.5008C69.246 55.7525 68.6515 54.4614 69.4513 52.2964ZM90.8764 56.1637L87.3545 65.6967L90.8465 66.9868L94.6263 56.7553C96.5227 51.6221 94.5973 48.1328 90.791 46.7266C88.4863 45.8752 86.1658 46.2482 84.3351 47.8736L88.5794 36.385L85.0874 35.095L75.412 61.2847L78.9039 62.5748L82.4258 53.0417C83.703 49.5847 85.9543 48.4321 88.5733 49.3997C91.1923 50.3672 92.1535 52.7066 90.8764 56.1637ZM102.282 71.6084C107.346 73.479 112.497 71.1359 114.471 65.7932C116.445 60.4505 114.054 55.3208 108.991 53.4502C103.927 51.5796 98.7755 53.9228 96.8017 59.2655C94.828 64.6082 97.2189 69.7378 102.282 71.6084ZM103.469 68.3958C100.431 67.2735 98.9907 64.0824 100.294 60.5555C101.597 57.0287 104.766 55.5405 107.804 56.6628C110.842 57.7852 112.282 60.9762 110.979 64.5031C109.676 68.03 106.507 69.5182 103.469 68.3958ZM129.619 70.4767L126.097 80.0097L129.589 81.2998L133.369 71.0683C135.265 65.9351 133.34 62.4458 129.534 61.0396C127.229 60.1882 124.909 60.5612 123.078 62.1866L124.097 59.428L120.605 58.1379L114.155 75.5977L117.647 76.8878L121.169 67.3547C122.446 63.8977 124.697 62.7451 127.316 63.7127C129.935 64.6802 130.896 67.0196 129.619 70.4767Z" fill="white"/>
</svg>
