<svg width="191" height="209" viewBox="0 0 191 209" fill="none" xmlns="http://www.w3.org/2000/svg">
<rect y="29.0352" width="160" height="182" rx="20" transform="rotate(-10.4557 0 29.0352)" fill="#F9EBFF"/>
<path d="M48.2769 71.6375C46.3605 61.2528 49.7478 56.3324 56.073 55.1651C62.115 54.0502 66.4589 56.9581 68.0616 65.6435L68.2184 66.4931L77.659 64.751L77.3629 63.1461C74.9238 49.9292 65.3269 44.4763 54.4702 46.4798C43.1415 48.5704 35.9791 57.8971 38.6969 72.6244L43.8189 100.38C46.5366 115.107 56.5562 121.263 67.8849 119.172C79.2136 117.082 86.4282 108.038 83.8324 93.9719L83.484 92.0838C80.8359 77.734 71.7706 71.9878 62.0467 73.7822C56.76 74.7578 52.5174 77.6884 50.472 83.5326L48.2769 71.6375ZM53.1027 97.7879C51.3954 88.5361 54.7754 84.1052 61.195 82.9205C67.8034 81.701 72.3535 84.6685 74.0608 93.9203L74.3744 95.6196C76.0469 104.683 72.7017 109.302 66.2821 110.487C59.8625 111.672 55.1062 108.645 53.4163 99.4872L53.1027 97.7879Z" fill="black"/>
<path d="M48.4324 152.292L53.1055 151.43C54.9818 151.084 55.9369 150.011 55.6135 148.258C55.4175 147.196 54.7204 146.593 53.7766 146.437C54.4048 145.974 54.7396 145.308 54.573 144.405C54.2855 142.847 53.0476 142.289 51.4368 142.586L46.7991 143.442L48.4324 152.292ZM49.1287 144.659L51.1112 144.293C52.0848 144.114 52.4622 144.373 52.5831 145.028C52.6909 145.613 52.4408 146.043 51.4673 146.223L49.4848 146.589L49.1287 144.659ZM49.7787 148.182L52.0799 147.757C52.9118 147.604 53.3554 147.924 53.4763 148.579C53.6037 149.27 53.3071 149.745 52.4751 149.899L50.174 150.324L49.7787 148.182ZM62.1806 149.938C64.7649 149.461 66.3448 147.211 65.845 144.503C65.3452 141.795 63.0663 140.257 60.4819 140.734C57.8976 141.211 56.3177 143.461 56.8175 146.169C57.3172 148.877 59.5962 150.415 62.1806 149.938ZM61.8212 147.991C60.4582 148.243 59.2356 147.37 58.9416 145.777C58.6476 144.184 59.4783 142.932 60.8413 142.681C62.2042 142.429 63.4269 143.302 63.7209 144.895C64.0149 146.488 63.1842 147.74 61.8212 147.991ZM71.4133 152.627L70.3908 147.087C71.2137 147.777 72.2224 148.085 73.2845 147.889C75.7095 147.442 77.1832 145.211 76.6834 142.503C76.1837 139.795 74.0109 138.237 71.5859 138.685C70.5238 138.881 69.6915 139.528 69.1692 140.467L68.9634 139.352L66.8392 139.744L69.2891 153.019L71.4133 152.627ZM72.6596 145.991C71.2966 146.243 70.074 145.37 69.78 143.777C69.486 142.184 70.3167 140.932 71.6797 140.681C73.0427 140.429 74.2653 141.302 74.5593 142.895C74.8533 144.488 74.0226 145.739 72.6596 145.991ZM79.8045 137.351L77.6804 137.743L79.3137 146.593L81.4378 146.201L80.5787 141.546L85.2435 145.499L87.8987 145.009L82.8826 140.938L86.0353 136.201L83.2385 136.717L80.5166 141.21L79.8045 137.351ZM89.9411 135.48L87.64 135.905L89.2732 144.756L101.487 142.502L99.8537 133.651L97.7296 134.043L99.0036 140.946L96.0829 141.485L94.8089 134.582L92.6848 134.974L93.9587 141.877L91.2151 142.384L89.9411 135.48ZM107.844 141.511C110.429 141.035 112.009 138.784 111.509 136.076C111.009 133.368 108.73 131.83 106.146 132.307C103.561 132.784 101.981 135.034 102.481 137.742C102.981 140.45 105.26 141.988 107.844 141.511ZM107.485 139.564C106.122 139.816 104.899 138.943 104.605 137.35C104.311 135.757 105.142 134.506 106.505 134.254C107.868 134.002 109.091 134.875 109.385 136.468C109.679 138.061 108.848 139.313 107.485 139.564ZM116.26 139.775L114.986 132.872L118.438 132.235L119.712 139.138L121.836 138.746L120.203 129.896L112.503 131.317L114.136 140.167L116.26 139.775ZM128.196 137.756C130.78 137.279 132.36 135.029 131.86 132.321C131.36 129.612 129.081 128.074 126.497 128.551C123.913 129.028 122.333 131.278 122.832 133.987C123.332 136.695 125.611 138.233 128.196 137.756ZM127.836 135.809C126.473 136.06 125.251 135.188 124.957 133.595C124.663 132.001 125.493 130.75 126.856 130.498C128.219 130.247 129.442 131.119 129.736 132.713C130.03 134.306 129.199 135.557 127.836 135.809ZM134.488 136.412L139.161 135.549C141.037 135.203 141.992 134.13 141.669 132.378C141.473 131.315 140.776 130.712 139.832 130.557C140.46 130.093 140.795 129.427 140.628 128.524C140.341 126.967 139.103 126.408 137.492 126.705L132.854 127.561L134.488 136.412ZM135.184 128.779L137.166 128.413C138.14 128.233 138.517 128.493 138.638 129.148C138.746 129.732 138.496 130.163 137.522 130.342L135.54 130.708L135.184 128.779ZM135.834 132.301L138.135 131.876C138.967 131.723 139.411 132.044 139.531 132.699C139.659 133.389 139.362 133.865 138.53 134.018L136.229 134.443L135.834 132.301Z" fill="#AD61FF"/>
<path d="M52.6063 174.91L57.2794 174.048C59.1557 173.702 60.1108 172.629 59.7874 170.876C59.5914 169.814 58.8943 169.211 57.9505 169.055C58.5788 168.592 58.9135 167.926 58.7469 167.023C58.4594 165.465 57.2215 164.907 55.6107 165.204L50.973 166.06L52.6063 174.91ZM53.3026 167.277L55.2852 166.911C56.2587 166.732 56.6361 166.992 56.757 167.647C56.8648 168.231 56.6148 168.661 55.6412 168.841L53.6587 169.207L53.3026 167.277ZM53.9527 170.8L56.2538 170.375C57.0858 170.222 57.5294 170.542 57.6502 171.197C57.7776 171.888 57.481 172.363 56.6491 172.517L54.3479 172.942L53.9527 170.8ZM68.5821 171.962L67.3081 165.059L70.7599 164.422L72.0338 171.325L74.1579 170.933L72.5247 162.083L64.8247 163.504L66.458 172.354L68.5821 171.962ZM79.5312 174.518L78.5087 168.977C79.3316 169.667 80.3403 169.975 81.4024 169.779C83.8274 169.332 85.3011 167.101 84.8013 164.393C84.3015 161.685 82.1288 160.127 79.7037 160.575C78.6417 160.771 77.8094 161.419 77.287 162.357L77.0812 161.242L74.9571 161.634L77.407 174.91L79.5312 174.518ZM80.7775 167.881C79.4145 168.133 78.1919 167.26 77.8979 165.667C77.6039 164.074 78.4346 162.822 79.7976 162.571C81.1605 162.319 82.3832 163.192 82.6772 164.785C82.9712 166.378 82.1405 167.63 80.7775 167.881ZM91.3585 167.942C93.9428 167.465 95.5227 165.215 95.0229 162.507C94.5232 159.799 92.2442 158.261 89.6599 158.738C87.0755 159.214 85.4956 161.465 85.9954 164.173C86.4952 166.881 88.7741 168.419 91.3585 167.942ZM90.9991 165.995C89.6362 166.247 88.4135 165.374 88.1195 163.781C87.8255 162.188 88.6562 160.936 90.0192 160.685C91.3822 160.433 92.6048 161.306 92.8988 162.899C93.1928 164.492 92.3621 165.743 90.9991 165.995ZM99.7746 166.206L98.5006 159.303L102.324 158.597L101.965 156.65L96.0171 157.747L97.6504 166.598L99.7746 166.206ZM108.079 169.249L107.056 163.709C107.879 164.399 108.888 164.707 109.95 164.511C112.375 164.064 113.849 161.833 113.349 159.125C112.849 156.417 110.676 154.859 108.251 155.307C107.189 155.503 106.357 156.15 105.835 157.089L105.629 155.974L103.505 156.366L105.955 169.641L108.079 169.249ZM109.325 162.613C107.962 162.865 106.74 161.992 106.446 160.399C106.152 158.806 106.982 157.554 108.345 157.303C109.708 157.051 110.931 157.924 111.225 159.517C111.519 161.11 110.688 162.362 109.325 162.613ZM118.543 162.925C119.765 162.7 120.71 162.068 121.083 160.919L121.325 162.229L123.414 161.844L122.277 155.684C121.895 153.613 119.942 153.149 117.995 153.509C116.013 153.874 114.3 155.106 114.724 157.407L116.937 156.999C116.754 156.007 117.332 155.37 118.305 155.19C119.226 155.02 120.009 155.297 120.136 155.987C120.463 157.757 114.397 157.12 115.099 160.925C115.429 162.713 117.021 163.206 118.543 162.925ZM117.25 160.382C117.041 159.249 119.269 159.021 120.577 158.176L120.652 158.583C120.9 159.928 119.898 160.845 118.659 161.074C117.951 161.204 117.364 161.001 117.25 160.382ZM132.105 160.24L132.877 152.519L134.23 159.848L136.354 159.456L134.72 150.605L131.18 151.258L130.658 158.347L127.622 151.915L124.029 152.578L125.662 161.429L127.609 161.069L126.267 153.794L129.733 160.677L132.105 160.24ZM145.228 157.818L146 150.098L147.353 157.426L149.477 157.034L147.843 148.183L144.303 148.837L143.781 155.925L140.745 149.493L137.152 150.156L138.785 159.007L140.732 158.648L139.39 151.372L142.856 158.256L145.228 157.818ZM159.347 151.369C159.322 151.135 159.297 150.902 159.252 150.654C158.752 147.946 156.544 146.395 154.013 146.862C151.481 147.329 149.972 149.566 150.472 152.274C150.972 154.983 153.18 156.534 155.711 156.067C157.8 155.681 159.157 154.406 159.348 152.467L157.047 152.891C156.878 153.563 156.395 154.018 155.457 154.192C154.147 154.433 153.16 153.847 152.691 152.597L159.347 151.369ZM154.355 148.721C155.595 148.492 156.539 149.05 156.998 150.246L152.431 151.089C152.433 149.808 153.116 148.949 154.355 148.721Z" fill="black"/>
</svg>
