<svg width="396" height="262" viewBox="0 0 396 262" fill="none" xmlns="http://www.w3.org/2000/svg">
<rect x="28.8533" y="55.2371" width="339" height="80" rx="40" transform="rotate(11 28.8533 55.2371)" fill="#AD61FF"/>
<path d="M54.1002 94.7544L55.3344 88.4053L62.1371 89.7276L60.9029 96.0767L64.7902 96.8323L67.9385 80.6355L64.0513 79.8799L62.8297 86.1643L56.027 84.8419L57.2486 78.5576L53.3613 77.802L50.213 93.9988L54.1002 94.7544ZM73.8895 98.9372C76.1247 99.3717 78.161 98.9271 79.5691 97.2173L79.1031 99.6145L82.9256 100.357L85.1168 89.0845C85.8535 85.2944 82.8327 83.1944 79.2694 82.5018C75.6413 81.7966 71.8927 82.7488 71.0742 86.96L75.1234 87.7471C75.476 85.933 76.8896 85.2329 78.6712 85.5792C80.3557 85.9066 81.5066 86.9036 81.261 88.1669C80.6314 91.4063 70.7079 86.2501 69.3541 93.2147C68.7182 96.4865 71.1037 98.3957 73.8895 98.9372ZM73.3889 93.73C73.7919 91.6569 77.7458 92.7616 80.545 92.1963L80.4002 92.9414C79.9217 95.4033 77.5966 96.2961 75.329 95.8553C74.0333 95.6034 73.1685 94.8638 73.3889 93.73ZM104.839 80.7149C104.342 83.274 103.071 84.1028 100.512 83.6054L99.6051 83.4291L98.9755 86.6685L103.511 87.55L100.362 103.747L104.249 104.502L108.972 80.2072L105.085 79.4516L104.839 80.7149ZM131.055 100.165C130.582 100.174 129.87 100.204 128.251 99.8893C125.821 99.4171 124.702 98.2582 125.212 95.6343L125.936 91.909L122.049 91.1534L121.324 94.8787C120.355 99.8673 122.181 102.407 127.234 103.39C128.271 103.591 129.488 103.727 130.368 103.696L129.266 109.365L133.153 110.121L136.302 93.924L132.415 93.1684L131.055 100.165ZM142.252 112.225C144.487 112.66 146.523 112.215 147.931 110.506L147.465 112.903L151.288 113.646L153.479 102.373C154.216 98.5827 151.195 96.4827 147.631 95.79C144.003 95.0848 140.255 96.0371 139.436 100.248L143.485 101.035C143.838 99.2213 145.252 98.5211 147.033 98.8674C148.718 99.1949 149.869 100.192 149.623 101.455C148.993 104.695 139.07 99.5383 137.716 106.503C137.08 109.775 139.466 111.684 142.252 112.225ZM141.751 107.018C142.154 104.945 146.108 106.05 148.907 105.485L148.762 106.23C148.284 108.692 145.959 109.584 143.691 109.144C142.395 108.892 141.531 108.152 141.751 107.018ZM168.402 106.853L172.483 107.647C172.882 103.522 170.074 100.152 165.701 99.3024C161.036 98.3957 156.896 101.188 155.933 106.144C154.969 111.101 157.762 115.24 162.427 116.147C166.929 117.022 170.917 114.839 171.943 110.601L167.926 109.82C167.142 112.122 165.16 112.98 163.119 112.584C160.69 112.112 159.253 109.815 159.82 106.9C160.387 103.984 162.579 102.393 165.008 102.866C167.049 103.262 168.558 104.665 168.402 106.853ZM188.461 120.871L190.916 108.238L195.775 109.182L196.468 105.619L182.863 102.974L182.17 106.538L187.029 107.482L184.573 120.116L188.461 120.871ZM212.271 118.44C212.385 118.025 212.499 117.61 212.587 117.157C213.551 112.201 210.823 108.073 206.191 107.173C201.558 106.272 197.483 109.077 196.52 114.034C195.557 118.99 198.284 123.117 202.916 124.018C206.739 124.761 209.91 123.494 211.536 120.314L207.325 119.496C206.587 120.529 205.456 120.981 203.74 120.648C201.342 120.182 200.052 118.519 200.09 116.072L212.271 118.44ZM205.53 110.574C207.797 111.015 209.035 112.6 209.016 114.95L200.658 113.325C201.52 111.139 203.262 110.133 205.53 110.574ZM221.491 127.628C226.221 128.547 230.425 125.768 231.389 120.811C232.352 115.855 229.495 111.703 224.765 110.783C220.036 109.864 215.831 112.644 214.868 117.6C213.904 122.556 216.762 126.709 221.491 127.628ZM222.184 124.065C219.689 123.58 218.188 121.271 218.755 118.356C219.322 115.44 221.578 113.862 224.073 114.347C226.567 114.832 228.068 117.14 227.501 120.056C226.935 122.971 224.678 124.55 222.184 124.065ZM235.531 138.425L237.502 128.286C238.444 130.016 239.958 131.218 241.902 131.595C246.34 132.458 250.35 129.641 251.313 124.684C252.277 119.728 249.614 115.613 245.176 114.751C243.232 114.373 241.378 114.92 239.857 116.171L240.254 114.13L236.367 113.375L231.644 137.67L235.531 138.425ZM242.108 127.938C239.614 127.453 238.113 125.144 238.68 122.229C239.246 119.313 241.503 117.735 243.997 118.22C246.492 118.704 247.993 121.013 247.426 123.929C246.859 126.844 244.603 128.423 242.108 127.938ZM268.211 136.373L271.36 120.177L266.371 119.207L257.667 130.088L260.022 117.973L256.296 117.249L253.148 133.445L258.137 134.415L266.835 123.566L264.486 135.649L268.211 136.373ZM287.825 140.186L290.973 123.989L285.984 123.019L277.28 133.9L279.635 121.785L275.91 121.061L272.761 137.258L277.75 138.228L286.448 127.379L284.099 139.462L287.825 140.186ZM329.827 140.45L330.33 137.859L301.176 132.192L300.672 134.783L329.827 140.45ZM61.4879 116.982L60.7953 120.546L68.5698 122.057L67.8142 125.944L71.7014 126.7L72.457 122.813L75.3725 123.379L76.0651 119.816L73.1497 119.249L76.4239 102.405L70.5931 101.271L61.4879 116.982ZM64.6625 117.6L71.8756 105.05L69.2624 118.494L64.6625 117.6ZM97.1459 122.098C96.6735 122.107 95.9618 122.137 94.3421 121.822C91.9126 121.35 90.7931 120.191 91.3032 117.567L92.0273 113.842L88.14 113.086L87.4159 116.812C86.4462 121.8 88.2721 124.34 93.3255 125.323C94.3621 125.524 95.5796 125.66 96.4596 125.629L95.3577 131.298L99.2449 132.054L102.393 115.857L98.506 115.101L97.1459 122.098ZM108.343 134.158C110.578 134.593 112.614 134.148 114.023 132.438L113.557 134.836L117.379 135.579L119.57 124.306C120.307 120.516 117.286 118.416 113.723 117.723C110.095 117.018 106.346 117.97 105.528 122.181L109.577 122.968C109.93 121.154 111.343 120.454 113.125 120.8C114.809 121.128 115.96 122.125 115.715 123.388C115.085 126.627 105.161 121.471 103.808 128.436C103.172 131.708 105.557 133.617 108.343 134.158ZM107.842 128.951C108.245 126.878 112.199 127.983 114.999 127.417L114.854 128.163C114.375 130.624 112.05 131.517 109.783 131.076C108.487 130.825 107.622 130.085 107.842 128.951ZM134.493 128.786L138.575 129.58C138.973 125.455 136.165 122.085 131.792 121.235C127.128 120.329 122.988 123.121 122.024 128.077C121.061 133.033 123.853 137.173 128.518 138.08C133.021 138.955 137.009 136.772 138.034 132.534L134.017 131.753C133.234 134.055 131.251 134.913 129.211 134.517C126.781 134.044 125.345 131.748 125.912 128.833C126.478 125.917 128.67 124.326 131.1 124.799C133.14 125.195 134.65 126.598 134.493 128.786ZM144.691 141.224C146.926 141.658 148.962 141.214 150.371 139.504L149.905 141.901L153.727 142.644L155.918 131.371C156.655 127.581 153.634 125.481 150.071 124.788C146.443 124.083 142.694 125.035 141.876 129.246L145.925 130.034C146.278 128.22 147.691 127.519 149.473 127.866C151.157 128.193 152.308 129.19 152.063 130.453C151.433 133.693 141.509 128.537 140.156 135.501C139.52 138.773 141.905 140.682 144.691 141.224ZM144.19 136.017C144.593 133.943 148.547 135.048 151.347 134.483L151.202 135.228C150.723 137.69 148.398 138.583 146.131 138.142C144.835 137.89 143.97 137.15 144.19 136.017ZM169.285 145.668L171.741 133.035L178.057 134.262L175.602 146.896L179.489 147.652L182.637 131.455L168.546 128.716L165.398 144.913L169.285 145.668ZM186.343 157.388L188.314 147.249C189.256 148.979 190.77 150.181 192.714 150.558C197.152 151.421 201.162 148.603 202.125 143.647C203.089 138.691 200.426 134.576 195.988 133.714C194.044 133.336 192.19 133.883 190.669 135.134L191.066 133.093L187.179 132.337L182.456 156.633L186.343 157.388ZM192.92 146.901C190.426 146.416 188.925 144.107 189.492 141.192C190.058 138.276 192.315 136.698 194.809 137.183C197.304 137.667 198.805 139.976 198.238 142.892C197.671 145.807 195.415 147.385 192.92 146.901ZM208.529 153.633C210.765 154.067 212.801 153.622 214.209 151.913L213.743 154.31L217.565 155.053L219.757 143.78C220.493 139.99 217.473 137.89 213.909 137.197C210.281 136.492 206.533 137.444 205.714 141.655L209.763 142.442C210.116 140.628 211.529 139.928 213.311 140.275C214.996 140.602 216.146 141.599 215.901 142.862C215.271 146.102 205.348 140.945 203.994 147.91C203.358 151.182 205.744 153.091 208.529 153.633ZM208.029 148.425C208.432 146.352 212.386 147.457 215.185 146.892L215.04 147.637C214.562 150.099 212.236 150.991 209.969 150.551C208.673 150.299 207.808 149.559 208.029 148.425ZM228.806 140.429L224.919 139.673L221.77 155.87L225.658 156.626L227.314 148.106L232.622 157.98L237.481 158.924L231.652 148.614L240.208 142.645L235.09 141.651L227.433 147.491L228.806 140.429ZM245.912 160.563L248.368 147.929L253.227 148.874L253.92 145.311L240.314 142.666L239.622 146.229L244.481 147.174L242.025 159.807L245.912 160.563ZM268.594 164.972L271.743 148.775L266.754 147.805L258.05 158.686L260.405 146.571L256.68 145.847L253.531 162.044L258.52 163.014L267.218 152.165L264.869 164.248L268.594 164.972ZM280.18 150.415L276.293 149.66L273.145 165.856L277.032 166.612L278.688 158.092L283.997 167.966L288.856 168.91L283.027 158.6L291.583 152.632L286.465 151.637L278.808 157.477L280.18 150.415ZM306.524 172.345L309.672 156.148L304.684 155.178L295.98 166.059L298.335 153.944L294.609 153.22L291.461 169.417L296.45 170.386L305.147 159.538L302.799 171.621L306.524 172.345Z" fill="white"/>
<rect x="286.195" y="156.12" width="95" height="52" rx="26" transform="rotate(31 286.195 156.12)" fill="#FF9E00"/>
<mask id="mask0_1_4166" style="mask-type:alpha" maskUnits="userSpaceOnUse" x="269" y="165" width="89" height="75">
<rect x="286.194" y="156.119" width="95" height="52" rx="26" transform="rotate(31 286.194 156.119)" fill="#FF9E00"/>
</mask>
<g mask="url(#mask0_1_4166)">
<g filter="url(#filter0_f_1_4166)">
<rect x="28.8518" y="55.2366" width="339" height="80" rx="40" transform="rotate(11 28.8518 55.2366)" fill="#FF6D00"/>
</g>
<g filter="url(#filter1_f_1_4166)">
<path d="M54.1002 94.7547L55.3344 88.4055L62.1371 89.7278L60.9029 96.077L64.7902 96.8326L67.9385 80.6357L64.0513 79.8801L62.8297 86.1645L56.027 84.8422L57.2486 78.5578L53.3613 77.8022L50.213 93.9991L54.1002 94.7547ZM73.8895 98.9375C76.1247 99.372 78.161 98.9273 79.5691 97.2176L79.1031 99.6147L82.9256 100.358L85.1168 89.0847C85.8535 85.2947 82.8327 83.1947 79.2694 82.5021C75.6413 81.7968 71.8927 82.7491 71.0742 86.9602L75.1234 87.7473C75.476 85.9333 76.8896 85.2331 78.6712 85.5795C80.3557 85.9069 81.5066 86.9038 81.261 88.1672C80.6314 91.4065 70.7079 86.2503 69.3541 93.2149C68.7182 96.4867 71.1037 98.396 73.8895 98.9375ZM73.3889 93.7303C73.7919 91.6571 77.7458 92.7618 80.545 92.1966L80.4002 92.9416C79.9217 95.4035 77.5966 96.2963 75.329 95.8555C74.0333 95.6037 73.1685 94.8641 73.3889 93.7303ZM104.839 80.7152C104.342 83.2743 103.071 84.1031 100.512 83.6056L99.6051 83.4293L98.9755 86.6687L103.511 87.5502L100.362 103.747L104.249 104.503L108.972 80.2074L105.085 79.4518L104.839 80.7152ZM131.055 100.166C130.582 100.175 129.87 100.204 128.251 99.8896C125.821 99.4173 124.702 98.2584 125.212 95.6345L125.936 91.9093L122.049 91.1537L121.324 94.8789C120.355 99.8676 122.181 102.408 127.234 103.39C128.271 103.591 129.488 103.727 130.368 103.697L129.266 109.365L133.153 110.121L136.302 93.9242L132.415 93.1686L131.055 100.166ZM142.252 112.226C144.487 112.66 146.523 112.216 147.931 110.506L147.465 112.903L151.288 113.646L153.479 102.373C154.216 98.5829 151.195 96.4829 147.631 95.7903C144.003 95.0851 140.255 96.0373 139.436 100.248L143.485 101.036C143.838 99.2215 145.252 98.5214 147.033 98.8677C148.718 99.1951 149.869 100.192 149.623 101.455C148.993 104.695 139.07 99.5385 137.716 106.503C137.08 109.775 139.466 111.684 142.252 112.226ZM141.751 107.019C142.154 104.945 146.108 106.05 148.907 105.485L148.762 106.23C148.284 108.692 145.959 109.585 143.691 109.144C142.395 108.892 141.531 108.152 141.751 107.019ZM168.402 106.854L172.483 107.647C172.882 103.522 170.074 100.153 165.701 99.3026C161.036 98.3959 156.896 101.188 155.933 106.145C154.969 111.101 157.762 115.241 162.427 116.147C166.929 117.023 170.917 114.839 171.943 110.601L167.926 109.82C167.142 112.122 165.16 112.981 163.119 112.584C160.69 112.112 159.253 109.816 159.82 106.9C160.387 103.985 162.579 102.394 165.008 102.866C167.049 103.263 168.558 104.665 168.402 106.854ZM188.461 120.872L190.916 108.238L195.775 109.183L196.468 105.619L182.863 102.975L182.17 106.538L187.029 107.483L184.573 120.116L188.461 120.872ZM212.271 118.44C212.385 118.025 212.499 117.61 212.587 117.157C213.551 112.201 210.823 108.073 206.191 107.173C201.558 106.273 197.483 109.078 196.52 114.034C195.557 118.99 198.284 123.117 202.916 124.018C206.739 124.761 209.91 123.495 211.536 120.314L207.325 119.496C206.587 120.529 205.456 120.982 203.74 120.648C201.342 120.182 200.052 118.519 200.09 116.073L212.271 118.44ZM205.53 110.574C207.797 111.015 209.035 112.601 209.016 114.95L200.658 113.325C201.52 111.14 203.262 110.134 205.53 110.574ZM221.491 127.628C226.221 128.548 230.425 125.768 231.389 120.812C232.352 115.855 229.495 111.703 224.765 110.784C220.036 109.864 215.831 112.644 214.868 117.6C213.904 122.557 216.762 126.709 221.491 127.628ZM222.184 124.065C219.689 123.58 218.188 121.271 218.755 118.356C219.322 115.44 221.578 113.862 224.073 114.347C226.567 114.832 228.068 117.141 227.501 120.056C226.935 122.971 224.678 124.55 222.184 124.065ZM235.531 138.426L237.502 128.286C238.444 130.016 239.958 131.218 241.902 131.596C246.34 132.458 250.35 129.641 251.313 124.685C252.277 119.728 249.614 115.614 245.176 114.751C243.232 114.373 241.378 114.92 239.857 116.171L240.254 114.13L236.367 113.375L231.644 137.67L235.531 138.426ZM242.108 127.938C239.614 127.453 238.113 125.144 238.68 122.229C239.246 119.313 241.503 117.735 243.997 118.22C246.492 118.705 247.993 121.014 247.426 123.929C246.859 126.844 244.603 128.423 242.108 127.938ZM268.211 136.374L271.36 120.177L266.371 119.207L257.667 130.088L260.022 117.973L256.296 117.249L253.148 133.446L258.137 134.415L266.835 123.567L264.486 135.649L268.211 136.374ZM287.825 140.186L290.973 123.989L285.984 123.02L277.28 133.901L279.635 121.785L275.91 121.061L272.761 137.258L277.75 138.228L286.448 127.379L284.099 139.462L287.825 140.186ZM329.827 140.45L330.33 137.859L301.176 132.192L300.672 134.783L329.827 140.45ZM61.4879 116.983L60.7953 120.546L68.5698 122.057L67.8142 125.944L71.7014 126.7L72.457 122.813L75.3725 123.38L76.0651 119.816L73.1497 119.249L76.4239 102.405L70.5931 101.271L61.4879 116.983ZM64.6625 117.6L71.8756 105.051L69.2624 118.494L64.6625 117.6ZM97.1459 122.099C96.6735 122.108 95.9618 122.137 94.3421 121.822C91.9126 121.35 90.7931 120.191 91.3032 117.567L92.0273 113.842L88.14 113.087L87.4159 116.812C86.4462 121.8 88.2721 124.341 93.3255 125.323C94.3621 125.524 95.5796 125.66 96.4596 125.629L95.3577 131.298L99.2449 132.054L102.393 115.857L98.506 115.102L97.1459 122.099ZM108.343 134.159C110.578 134.593 112.614 134.148 114.023 132.439L113.557 134.836L117.379 135.579L119.57 124.306C120.307 120.516 117.286 118.416 113.723 117.723C110.095 117.018 106.346 117.97 105.528 122.181L109.577 122.968C109.93 121.154 111.343 120.454 113.125 120.801C114.809 121.128 115.96 122.125 115.715 123.388C115.085 126.628 105.161 121.471 103.808 128.436C103.172 131.708 105.557 133.617 108.343 134.159ZM107.842 128.951C108.245 126.878 112.199 127.983 114.999 127.418L114.854 128.163C114.375 130.625 112.05 131.517 109.783 131.077C108.487 130.825 107.622 130.085 107.842 128.951ZM134.493 128.787L138.575 129.58C138.973 125.455 136.165 122.086 131.792 121.236C127.128 120.329 122.988 123.121 122.024 128.077C121.061 133.034 123.853 137.174 128.518 138.08C133.021 138.955 137.009 136.772 138.034 132.534L134.017 131.753C133.234 134.055 131.251 134.914 129.211 134.517C126.781 134.045 125.345 131.748 125.912 128.833C126.478 125.918 128.67 124.327 131.1 124.799C133.14 125.196 134.65 126.598 134.493 128.787ZM144.691 141.224C146.926 141.658 148.962 141.214 150.371 139.504L149.905 141.901L153.727 142.644L155.918 131.371C156.655 127.581 153.634 125.481 150.071 124.789C146.443 124.083 142.694 125.036 141.876 129.247L145.925 130.034C146.278 128.22 147.691 127.52 149.473 127.866C151.157 128.193 152.308 129.19 152.063 130.454C151.433 133.693 141.509 128.537 140.156 135.501C139.52 138.773 141.905 140.682 144.691 141.224ZM144.19 136.017C144.593 133.944 148.547 135.048 151.347 134.483L151.202 135.228C150.723 137.69 148.398 138.583 146.131 138.142C144.835 137.89 143.97 137.151 144.19 136.017ZM169.285 145.668L171.741 133.035L178.057 134.263L175.602 146.896L179.489 147.652L182.637 131.455L168.546 128.716L165.398 144.913L169.285 145.668ZM186.343 157.389L188.314 147.249C189.256 148.979 190.77 150.181 192.714 150.559C197.152 151.421 201.162 148.604 202.125 143.647C203.089 138.691 200.426 134.577 195.988 133.714C194.044 133.336 192.19 133.883 190.669 135.134L191.066 133.093L187.179 132.338L182.456 156.633L186.343 157.389ZM192.92 146.901C190.426 146.416 188.925 144.107 189.492 141.192C190.058 138.276 192.315 136.698 194.809 137.183C197.304 137.668 198.805 139.976 198.238 142.892C197.671 145.807 195.415 147.386 192.92 146.901ZM208.529 153.633C210.765 154.067 212.801 153.623 214.209 151.913L213.743 154.31L217.565 155.053L219.757 143.78C220.493 139.99 217.473 137.89 213.909 137.197C210.281 136.492 206.533 137.444 205.714 141.656L209.763 142.443C210.116 140.629 211.529 139.929 213.311 140.275C214.996 140.602 216.146 141.599 215.901 142.863C215.271 146.102 205.348 140.946 203.994 147.91C203.358 151.182 205.744 153.091 208.529 153.633ZM208.029 148.426C208.432 146.352 212.386 147.457 215.185 146.892L215.04 147.637C214.562 150.099 212.236 150.992 209.969 150.551C208.673 150.299 207.808 149.559 208.029 148.426ZM228.806 140.429L224.919 139.674L221.77 155.87L225.658 156.626L227.314 148.107L232.622 157.98L237.481 158.924L231.652 148.614L240.208 142.646L235.09 141.651L227.433 147.491L228.806 140.429ZM245.912 160.563L248.368 147.93L253.227 148.874L253.92 145.311L240.314 142.666L239.622 146.23L244.481 147.174L242.025 159.808L245.912 160.563ZM268.594 164.972L271.743 148.775L266.754 147.806L258.05 158.687L260.405 146.571L256.68 145.847L253.531 162.044L258.52 163.014L267.218 152.165L264.869 164.248L268.594 164.972ZM280.18 150.415L276.293 149.66L273.145 165.857L277.032 166.612L278.688 158.093L283.997 167.966L288.856 168.911L283.027 158.6L291.583 152.632L286.465 151.637L278.808 157.477L280.18 150.415ZM306.524 172.345L309.672 156.148L304.684 155.178L295.98 166.059L298.335 153.944L294.609 153.22L291.461 169.417L296.45 170.387L305.147 159.538L302.799 171.621L306.524 172.345Z" fill="white"/>
</g>
</g>
<path d="M284.395 194.716L291.636 199.067C294.578 200.835 297.204 200.565 298.836 197.849C299.907 196.067 299.596 194.341 298.347 192.897C299.869 193.118 301.182 192.599 302.083 191.099C303.562 188.638 302.51 186.351 299.908 184.788L292.893 180.573L284.395 194.716ZM297.796 186.445C299.55 187.498 299.945 188.506 299.181 189.779C298.467 190.967 297.34 191.176 295.587 190.122L292.107 188.031L294.317 184.354L297.796 186.445ZM294.861 192.612C296.445 193.563 296.84 194.763 296.058 196.065C295.276 197.366 294.031 197.58 292.447 196.628L288.402 194.198L290.816 190.181L294.861 192.612ZM305.997 208.081C310.099 210.545 314.972 209.354 317.573 205.027C320.173 200.699 318.937 195.836 314.835 193.372C310.734 190.908 305.86 192.099 303.26 196.426C300.659 200.754 301.896 205.616 305.997 208.081ZM307.561 205.479C305.1 204 304.372 200.983 306.089 198.126C307.805 195.269 310.811 194.496 313.272 195.974C315.733 197.453 316.461 200.47 314.744 203.327C313.028 206.184 310.022 206.957 307.561 205.479ZM321.85 219.377L336.873 206.998L334.044 205.299L322.849 214.703L325.869 200.387L323.04 198.687L319.208 217.751C316.977 219.414 315.387 219.883 313.605 218.812C312.926 218.404 312.36 217.872 311.925 217.379L310.429 219.868C310.865 220.361 311.572 220.978 312.364 221.454C315.843 223.544 318.64 222.03 321.85 219.377ZM337.714 217.129L346.439 203.121L343.384 201.286L335.112 215.565L337.714 217.129ZM331.994 223.701C332.984 224.296 334.241 223.935 334.802 223.001C335.38 222.04 335.109 220.76 334.119 220.166C333.157 219.588 331.844 219.915 331.266 220.877C330.705 221.81 331.032 223.124 331.994 223.701Z" fill="white"/>
<defs>
<filter id="filter0_f_1_4166" x="10.4771" y="52.1265" width="354.256" height="149.435" filterUnits="userSpaceOnUse" color-interpolation-filters="sRGB">
<feFlood flood-opacity="0" result="BackgroundImageFix"/>
<feBlend mode="normal" in="SourceGraphic" in2="BackgroundImageFix" result="shape"/>
<feGaussianBlur stdDeviation="5" result="effect1_foregroundBlur_1_4166"/>
</filter>
<filter id="filter1_f_1_4166" x="39.2961" y="65.7039" width="297.773" height="121.943" filterUnits="userSpaceOnUse" color-interpolation-filters="sRGB">
<feFlood flood-opacity="0" result="BackgroundImageFix"/>
<feBlend mode="normal" in="SourceGraphic" in2="BackgroundImageFix" result="shape"/>
<feGaussianBlur stdDeviation="2" result="effect1_foregroundBlur_1_4166"/>
</filter>
</defs>
</svg>
