<svg width="235" height="93" viewBox="0 0 235 93" fill="none" xmlns="http://www.w3.org/2000/svg">
<path d="M2.33474 38.9621C9.55509 52.917 11.7253 68.9691 8.46989 84.3403C7.21516 90.2628 10.8066 93.5932 16.5835 91.8041C74.0008 74.0397 166.759 61.4987 226.838 63.3776C232.877 63.5691 235.46 59.3988 232.678 54.0273C225.458 40.0724 223.288 24.0203 226.543 8.64906C227.798 2.72655 224.206 -0.603783 218.429 1.18533C161.012 18.9497 68.2483 31.4914 8.17508 29.6118C2.13565 29.4203 -0.447651 33.5854 2.33474 38.9621Z" fill="#FF6D00"/>
<path d="M32.79 47.5317C30.3183 47.8659 28.3383 49.3357 27.1639 51.4854L25.5429 39.4959L21.8538 39.9947L25.5945 67.6628L29.2836 67.164L28.9095 64.3972C30.6126 66.1579 32.9119 67.0491 35.3836 66.7149C40.4376 66.0316 43.7037 61.5706 42.9406 55.9263C42.1775 50.282 37.844 46.8484 32.79 47.5317ZM32.8062 50.9855C36.0157 50.5516 38.7478 52.6991 39.2515 56.4251C39.7553 60.151 37.6915 62.9469 34.482 63.3808C31.2725 63.8148 28.5405 61.6673 28.0367 57.9413C27.533 54.2153 29.5967 51.4195 32.8062 50.9855ZM46.0733 42.0169C47.5121 41.8224 48.3635 40.6179 48.174 39.216C47.9844 37.8142 46.8487 36.9159 45.41 37.1104C44.0081 37.2999 43.1148 38.4725 43.3044 39.8744C43.4939 41.2762 44.6715 42.2064 46.0733 42.0169ZM50.9554 64.234L48.4615 45.7886L44.7725 46.2874L47.2663 64.7327L50.9554 64.234ZM62.4398 54.0789L61.9809 50.6849L53.0533 51.8919L53.5122 55.2859L62.4398 54.0789ZM78.8597 49.1542L82.6964 48.6355C81.6302 44.084 77.4115 41.4989 72.5419 42.1573C67.2666 42.8705 63.8898 47.3465 64.6529 52.9908C65.416 58.6351 69.8601 62.0537 75.1355 61.3405C80.1527 60.6621 83.5873 56.8921 83.224 51.9826L79.3874 52.5013C79.4325 55.6131 77.3697 57.5824 74.6767 57.9465C71.5409 58.3705 68.8458 56.218 68.342 52.492C67.8382 48.766 69.8651 45.9752 73.0008 45.5512C75.6569 45.1921 78.1118 46.4004 78.8597 49.1542ZM104.026 57.0588L101.532 38.6134L96.8471 39.2468L90.3891 55.1084L88.3991 40.389L84.8576 40.8678L87.3514 59.3132L92.0365 58.6798L98.4944 42.8182L100.484 57.5376L104.026 57.0588ZM120.042 43.5864L123.878 43.0677C122.812 38.5162 118.593 35.9311 113.724 36.5894C108.448 37.3027 105.072 41.7787 105.835 47.423C106.598 53.0673 111.042 56.4859 116.317 55.7727C121.335 55.0943 124.769 51.3242 124.406 46.4148L120.569 46.9335C120.614 50.0453 118.552 52.0146 115.859 52.3787C112.723 52.8027 110.028 50.6502 109.524 46.9242C109.02 43.1982 111.047 40.4073 114.183 39.9834C116.839 39.6243 119.294 40.8326 120.042 43.5864ZM135.448 52.8105L133.413 37.7591L139.39 36.9511L138.931 33.5571L123.289 35.6719L123.748 39.0658L129.724 38.2578L131.759 53.3093L135.448 52.8105ZM159.174 41.4887C159.156 41.0779 159.138 40.6671 159.079 40.2244C158.315 34.5801 153.945 31.1515 148.707 31.8598C143.468 32.568 140.165 37.034 140.928 42.6783C141.691 48.3226 146.062 51.7512 151.3 51.043C155.543 50.4694 158.468 47.9327 159.098 43.9783L155.114 44.517C154.6 46.2768 153.259 47.4724 151.009 47.7766C147.91 48.1956 145.59 46.5935 144.713 43.4438L159.174 41.4887ZM149.146 35.1061C152.097 34.7071 154.375 36.2774 155.237 39.3163L144.391 40.7827C144.415 37.624 146.157 35.5101 149.146 35.1061ZM176.064 47.3192L179.074 30.6841L181.229 46.621L184.918 46.1222L182.424 27.6768L176.3 28.5047L173.781 44.3222L167.151 29.7417L160.917 30.5846L163.411 49.03L166.805 48.5711L164.65 32.6343L171.932 47.8778L176.064 47.3192ZM203.399 37.3127C202.905 33.6605 199.946 31.506 195.483 32.1095L191.388 32.6632L190.565 26.5762L186.876 27.0749L189.369 45.5203L197.19 44.463C201.802 43.8395 203.892 40.9649 203.399 37.3127ZM210.729 42.6325L208.235 24.1871L204.546 24.6859L207.04 43.1313L210.729 42.6325ZM195.606 35.2483C198.115 34.9091 199.43 35.7455 199.704 37.7745C199.974 39.7666 198.948 41.0699 196.439 41.409L192.64 41.9228L191.807 35.762L195.606 35.2483Z" fill="white"/>
</svg>
