<svg width="231" height="201" viewBox="0 0 231 201" fill="none" xmlns="http://www.w3.org/2000/svg">
<rect x="16.8164" y="0.337891" width="214" height="182" rx="20" transform="rotate(5 16.8164 0.337891)" fill="#F9EBFF"/>
<path d="M79.0815 53.0692C80.2361 39.8716 72.6056 32.362 62.4683 31.4751C52.1398 30.5715 43.3295 36.5463 42.1581 49.9352L41.6059 56.2471L51.1694 57.0838L51.6547 51.537C52.4411 42.5473 56.343 39.805 61.6986 40.2735C66.7672 40.717 70.2125 44.2948 69.518 52.2325C67.9869 69.7337 39.3922 74.9413 37.4008 97.7024L36.9825 102.484L75.4276 105.848L76.1974 97.0492L48.0808 94.5893C51.9311 79.2184 77.3495 72.8656 79.0815 53.0692ZM98.8402 58.3635C99.7606 47.8436 104.337 44.0039 110.744 44.5644C116.865 45.0999 120.277 49.0604 119.507 57.8587L119.432 58.7195L128.995 59.5562L129.137 57.9304C130.309 44.5415 122.512 36.7282 111.514 35.766C100.038 34.762 90.649 41.8427 89.3437 56.7617L86.8838 84.8783C85.5786 99.7973 93.5953 108.401 105.071 109.405C116.548 110.409 125.911 103.615 127.158 89.3655L127.325 87.4528C128.597 72.9163 121.391 64.962 111.541 64.1002C106.185 63.6316 101.315 65.3256 97.786 70.4134L98.8402 58.3635ZM96.5226 84.8543C97.3426 75.4821 101.781 72.1121 108.284 72.681C114.979 73.2667 118.573 77.3395 117.754 86.7117L117.603 88.4332C116.8 97.6141 112.344 101.175 105.841 100.606C99.338 100.037 95.5604 95.8523 96.372 86.5757L96.5226 84.8543Z" fill="black"/>
<path d="M32.4096 136.716L32.9006 131.103C33.5099 131.988 34.4 132.554 35.4758 132.648C37.9325 132.863 39.9473 131.105 40.1873 128.362C40.4273 125.618 38.7482 123.538 36.2916 123.323C35.2157 123.229 34.2409 123.632 33.4874 124.397L33.5862 123.267L31.4344 123.079L30.2578 136.528L32.4096 136.716ZM35.3794 130.652C33.9987 130.531 33.0528 129.364 33.194 127.75C33.3352 126.136 34.4694 125.151 35.8501 125.272C37.2308 125.393 38.1767 126.56 38.0355 128.174C37.8943 129.788 36.7602 130.772 35.3794 130.652ZM50.1923 129.96C50.2306 129.728 50.269 129.497 50.2909 129.246C50.5309 126.502 48.816 124.419 46.2518 124.195C43.6876 123.97 41.6369 125.724 41.3969 128.468C41.1569 131.211 42.8718 133.295 45.436 133.519C47.5519 133.704 49.1998 132.836 49.9009 131.019L47.5698 130.815C47.228 131.417 46.6408 131.727 45.6904 131.644C44.3635 131.528 43.5686 130.7 43.4501 129.37L50.1923 129.96ZM46.0871 126.077C47.3423 126.187 48.1044 126.977 48.2277 128.252L43.6013 127.848C43.9443 126.613 44.8319 125.968 46.0871 126.077ZM54.2875 134.293C55.5248 134.402 56.604 134.044 57.2704 133.037L57.1543 134.364L59.2702 134.549L59.8162 128.309C59.9997 126.211 58.2413 125.244 56.2688 125.071C54.2605 124.895 52.2813 125.626 52.0774 127.957L54.3188 128.153C54.4067 127.149 55.1336 126.688 56.1198 126.775C57.0522 126.856 57.7334 127.331 57.6722 128.031C57.5154 129.824 51.8382 127.592 51.5009 131.448C51.3425 133.259 52.7454 134.159 54.2875 134.293ZM53.7191 131.497C53.8195 130.35 56.0273 130.723 57.5136 130.257L57.4775 130.67C57.3583 132.032 56.1479 132.649 54.8927 132.54C54.1754 132.477 53.6641 132.125 53.7191 131.497ZM68.9358 135.394L69.7202 126.429L62.8883 125.831C62.5181 130.063 62.2686 131.468 62.0196 132.043C61.8158 132.513 61.4695 132.754 61.0213 132.714L60.9137 132.705L60.7411 134.677L61.0639 134.706C62.6598 134.845 63.5216 134.288 64.1052 131.954C64.3256 131.088 64.5071 129.839 64.6882 127.976L67.3958 128.213L66.784 135.206L68.9358 135.394ZM79.0692 133.155C79.2245 131.38 78.0448 129.994 75.7675 129.794L74.0819 129.647L74.3282 126.832L72.1765 126.643L71.3921 135.609L75.2473 135.946C77.6322 136.155 78.9139 134.93 79.0692 133.155ZM73.9251 131.44L75.4492 131.573C76.561 131.671 76.9896 132.142 76.919 132.949C76.8499 133.738 76.3366 134.235 75.2249 134.138L73.7007 134.004L73.9251 131.44ZM82.6874 136.597L82.9949 133.083L86.7605 133.412L86.453 136.927L88.6048 137.115L89.3892 128.149L87.2374 127.961L86.9331 131.44L83.1675 131.11L83.4718 127.632L81.32 127.443L80.5356 136.409L82.6874 136.597ZM98.7397 134.876C98.895 133.101 97.7154 131.715 95.4381 131.515L93.7525 131.368L93.9988 128.553L91.847 128.364L91.0626 137.33L94.9179 137.667C97.3028 137.876 98.5844 136.651 98.7397 134.876ZM101.804 138.27L102.588 129.304L100.436 129.116L99.6518 138.082L101.804 138.27ZM93.5956 133.161L95.1198 133.294C96.2316 133.392 96.6601 133.863 96.5895 134.67C96.5205 135.459 96.0072 135.956 94.8955 135.859L93.3713 135.725L93.5956 133.161ZM105.524 138.595L107.835 135.726L109.828 138.972L112.338 139.192L109.349 134.322L112.943 130.21L110.433 129.99L108.307 132.605L106.488 129.645L103.977 129.426L106.807 134.046L103.014 138.376L105.524 138.595Z" fill="#AD61FF"/>
<path d="M122.517 131.048C121.029 130.917 120.026 131.426 119.436 132.187L119.461 131.901C119.645 129.803 120.228 129.33 122.007 129.232L123.896 129.127C125.947 129.017 126.721 128.633 126.872 126.912L124.72 126.723C124.7 126.956 124.59 127.182 124.117 127.213L121.975 127.332C119.233 127.49 117.715 128.315 117.403 131.883L117.111 135.218C116.877 137.89 118.704 139.929 121.287 140.155C123.887 140.383 126.022 138.69 126.259 135.983C126.496 133.275 124.705 131.239 122.517 131.048ZM121.459 138.183C120.042 138.059 119.131 136.913 119.266 135.371C119.399 133.847 120.497 132.859 121.914 132.982C123.366 133.11 124.238 134.306 124.107 135.794C123.976 137.301 122.894 138.308 121.459 138.183ZM136.045 141.266L136.83 132.3L134.068 132.058L129.967 138.457L130.554 131.751L128.491 131.57L127.707 140.536L130.468 140.778L134.568 134.397L133.983 141.085L136.045 141.266ZM141.368 136.329L141.227 137.943L142.661 138.068C143.54 138.145 143.897 138.61 143.839 139.273C143.786 139.883 143.344 140.386 142.071 140.275C140.726 140.157 140.231 139.409 140.329 138.298L138.177 138.109C137.982 140.333 139.305 141.732 141.905 141.959C144.452 142.182 145.837 141.219 145.984 139.533C146.064 138.619 145.658 137.897 144.758 137.438C145.6 137.115 146.047 136.341 146.114 135.57C146.234 134.207 145.25 132.856 142.721 132.635C140.067 132.402 138.656 133.869 138.496 135.698L140.648 135.886C140.747 134.757 141.389 134.235 142.572 134.338C143.684 134.435 144.091 134.941 144.037 135.568C143.983 136.178 143.628 136.526 142.803 136.454L141.368 136.329ZM149.74 142.464L150.047 138.949L153.813 139.279L153.505 142.793L155.657 142.981L156.441 134.016L154.29 133.827L153.985 137.306L150.22 136.977L150.524 133.498L148.372 133.31L147.588 142.275L149.74 142.464ZM166.675 140.151C166.713 139.919 166.751 139.688 166.773 139.437C167.013 136.693 165.298 134.61 162.734 134.386C160.17 134.161 158.119 135.915 157.879 138.659C157.639 141.402 159.354 143.486 161.918 143.71C164.034 143.895 165.682 143.027 166.383 141.21L164.052 141.006C163.71 141.608 163.123 141.918 162.173 141.835C160.846 141.719 160.051 140.89 159.932 139.561L166.675 140.151ZM162.569 136.268C163.825 136.378 164.587 137.168 164.71 138.443L160.084 138.038C160.427 136.804 161.314 136.159 162.569 136.268ZM174.79 139.217L177.05 139.414C177.031 137.154 175.315 135.486 172.895 135.274C170.313 135.049 168.226 136.799 167.986 139.543C167.746 142.286 169.497 144.373 172.079 144.599C174.571 144.817 176.61 143.405 176.925 141.048L174.701 140.853C174.408 142.146 173.381 142.725 172.251 142.626C170.907 142.509 169.997 141.345 170.138 139.731C170.279 138.117 171.377 137.129 172.722 137.247C173.852 137.346 174.75 138.021 174.79 139.217ZM182.903 141.39L183.075 139.418L178.592 139.025L178.42 140.998L182.903 141.39ZM31.5816 146.18L29.4298 145.991L28.6454 154.957L30.7972 155.145L31.2098 150.429L34.6525 155.483L37.3422 155.718L33.5925 150.457L37.8935 146.732L35.0603 146.484L31.2396 150.089L31.5816 146.18ZM46.7518 152.747C46.7901 152.515 46.8285 152.284 46.8504 152.033C47.0904 149.289 45.3755 147.206 42.8113 146.982C40.2471 146.757 38.1964 148.511 37.9564 151.255C37.7164 153.998 39.4313 156.082 41.9955 156.306C44.1114 156.491 45.7593 155.623 46.4604 153.806L44.1293 153.602C43.7875 154.204 43.2003 154.514 42.2499 154.431C40.923 154.315 40.1281 153.486 40.0096 152.157L46.7518 152.747ZM42.6466 148.864C43.9018 148.974 44.6639 149.764 44.7872 151.039L40.1608 150.634C40.5038 149.4 41.3914 148.754 42.6466 148.864ZM54.7111 143.686C54.6389 144.511 54.125 144.809 53.4974 144.754C52.9236 144.704 52.4334 144.318 52.5055 143.493L50.802 143.344C50.6546 145.03 51.6964 146.133 53.364 146.279C55.0496 146.426 56.2671 145.521 56.4146 143.835L54.7111 143.686ZM56.6366 157.406L57.421 148.44L54.6596 148.199L50.5583 154.598L51.145 147.891L49.0829 147.711L48.2985 156.677L51.0599 156.918L55.1597 150.537L54.5745 157.226L56.6366 157.406ZM65.6746 152.758L67.9339 152.956C67.9149 150.696 66.1997 149.028 63.7789 148.816C61.1968 148.59 59.1103 150.341 58.8703 153.084C58.6302 155.828 60.381 157.914 62.9632 158.14C65.4556 158.358 67.4944 156.947 67.8091 154.589L65.5856 154.395C65.2918 155.688 64.2654 156.267 63.1357 156.168C61.7909 156.05 60.8808 154.886 61.022 153.273C61.1632 151.659 62.2615 150.671 63.6064 150.788C64.7361 150.887 65.6347 151.562 65.6746 152.758ZM71.8659 158.919C73.1032 159.027 74.1825 158.67 74.8488 157.662L74.7327 158.989L76.8487 159.174L77.3946 152.934C77.5782 150.836 75.8197 149.869 73.8473 149.697C71.8389 149.521 69.8598 150.251 69.6558 152.582L71.8973 152.779C71.9851 151.774 72.712 151.314 73.6982 151.4C74.6307 151.482 75.3118 151.957 75.2507 152.656C75.0938 154.45 69.4167 152.218 69.0794 156.074C68.9209 157.885 70.3238 158.784 71.8659 158.919ZM71.2975 156.123C71.3979 154.975 73.6057 155.349 75.092 154.883L75.0559 155.295C74.9367 156.658 73.7263 157.275 72.4711 157.165C71.7539 157.103 71.2426 156.751 71.2975 156.123ZM83.2093 159.731L87.9432 160.145C89.8439 160.311 91.0505 159.532 91.2058 157.756C91.2999 156.68 90.7889 155.913 89.9205 155.512C90.6497 155.232 91.1497 154.68 91.2297 153.765C91.3678 152.187 90.3235 151.319 88.6917 151.176L83.9937 150.765L83.2093 159.731ZM85.9146 152.559L87.9229 152.735C88.9092 152.821 89.2037 153.172 89.1457 153.836C89.0939 154.428 88.7382 154.776 87.7519 154.69L85.7436 154.514L85.9146 152.559ZM85.6024 156.128L87.9335 156.332C88.7763 156.405 89.1184 156.833 89.0603 157.496C88.9991 158.196 88.5865 158.575 87.7437 158.501L85.4126 158.298L85.6024 156.128ZM99.393 161.147L100.005 154.154L103.501 154.459L102.89 161.453L105.041 161.641L105.826 152.675L98.0256 151.993L97.2412 160.959L99.393 161.147ZM109.265 166.528L109.756 160.915C110.365 161.8 111.255 162.365 112.331 162.459C114.788 162.674 116.803 160.917 117.043 158.174C117.283 155.43 115.604 153.35 113.147 153.135C112.071 153.041 111.096 153.444 110.343 154.209L110.442 153.079L108.29 152.891L107.113 166.339L109.265 166.528ZM112.235 160.463C110.854 160.343 109.908 159.176 110.05 157.562C110.191 155.948 111.325 154.963 112.706 155.084C114.086 155.205 115.032 156.372 114.891 157.986C114.75 159.599 113.616 160.584 112.235 160.463ZM122.417 163.342C125.035 163.571 127.157 161.823 127.397 159.08C127.638 156.336 125.851 154.247 123.233 154.017C120.615 153.788 118.492 155.536 118.252 158.28C118.012 161.023 119.799 163.113 122.417 163.342ZM122.59 161.369C121.209 161.249 120.263 160.082 120.404 158.468C120.545 156.854 121.68 155.869 123.06 155.99C124.441 156.111 125.387 157.278 125.246 158.891C125.105 160.505 123.97 161.49 122.59 161.369ZM130.991 163.911L131.603 156.918L135.476 157.257L135.649 155.284L129.624 154.757L128.84 163.723L130.991 163.911ZM138.184 169.058L138.675 163.445C139.285 164.33 140.175 164.895 141.251 164.99C143.707 165.205 145.722 163.447 145.962 160.704C146.202 157.96 144.523 155.88 142.066 155.665C140.99 155.571 140.016 155.974 139.262 156.739L139.361 155.609L137.209 155.421L136.033 168.87L138.184 169.058ZM141.154 162.994C139.773 162.873 138.828 161.706 138.969 160.092C139.11 158.478 140.244 157.493 141.625 157.614C143.006 157.735 143.951 158.902 143.81 160.516C143.669 162.129 142.535 163.114 141.154 162.994ZM149.956 165.751C151.193 165.859 152.272 165.502 152.938 164.494L152.822 165.821L154.938 166.006L155.484 159.766C155.668 157.668 153.909 156.701 151.937 156.529C149.929 156.353 147.949 157.083 147.745 159.414L149.987 159.611C150.075 158.606 150.802 158.146 151.788 158.232C152.72 158.314 153.401 158.789 153.34 159.488C153.183 161.281 147.506 159.05 147.169 162.905C147.011 164.717 148.413 165.616 149.956 165.751ZM149.387 162.955C149.487 161.807 151.695 162.181 153.182 161.715L153.146 162.127C153.026 163.49 151.816 164.107 150.561 163.997C149.843 163.934 149.332 163.583 149.387 162.955ZM163.743 166.777L166.544 159.541L165.895 166.965L168.047 167.153L168.831 158.187L165.245 157.874L162.852 164.567L161.641 157.558L158 157.24L157.216 166.206L159.189 166.378L159.833 159.008L161.34 166.567L163.743 166.777ZM177.037 167.94L179.838 160.704L179.189 168.128L181.34 168.316L182.125 159.351L178.539 159.037L176.146 165.73L174.934 158.721L171.294 158.403L170.51 167.369L172.482 167.541L173.127 160.171L174.634 167.73L177.037 167.94ZM192.364 165.486C192.402 165.255 192.44 165.023 192.462 164.772C192.702 162.029 190.987 159.945 188.423 159.721C185.859 159.497 183.808 161.25 183.568 163.994C183.328 166.738 185.043 168.821 187.607 169.045C189.723 169.23 191.371 168.363 192.072 166.545L189.741 166.341C189.399 166.943 188.812 167.253 187.862 167.17C186.535 167.054 185.74 166.226 185.621 164.896L192.364 165.486ZM188.258 161.604C189.514 161.714 190.276 162.503 190.399 163.779L185.773 163.374C186.116 162.139 187.003 161.494 188.258 161.604Z" fill="black"/>
</svg>
