<svg width="317" height="215" viewBox="0 0 317 215" fill="none" xmlns="http://www.w3.org/2000/svg">
<rect x="23.162" y="45.0886" width="278.128" height="65.6348" rx="32.8174" transform="rotate(11 23.162 45.0886)" fill="#AD61FF"/>
<path d="M43.7507 78.1661L44.7632 72.957L50.3444 74.0419L49.3318 79.251L52.5211 79.8709L55.1041 66.5824L51.9149 65.9625L50.9126 71.1184L45.3315 70.0336L46.3337 64.8776L43.1445 64.2577L40.5614 77.5462L43.7507 78.1661ZM59.9865 81.5978C61.8203 81.9543 63.4909 81.5895 64.6462 80.1868L64.2639 82.1535L67.4 82.7631L69.1978 73.5143C69.8022 70.4048 67.3238 68.6819 64.4004 68.1136C61.4237 67.535 58.3483 68.3163 57.6767 71.7713L60.9988 72.417C61.2881 70.9287 62.4479 70.3543 63.9096 70.6384C65.2916 70.9071 66.2358 71.725 66.0344 72.7615C65.5178 75.4192 57.3762 71.1888 56.2655 76.9029C55.7437 79.5871 57.7009 81.1536 59.9865 81.5978ZM59.5758 77.3257C59.9064 75.6248 63.1503 76.5311 65.4469 76.0674L65.3281 76.6786C64.9355 78.6985 63.0279 79.4309 61.1676 79.0693C60.1045 78.8627 59.395 78.2559 59.5758 77.3257ZM85.3787 66.6476C84.9706 68.7472 83.9282 69.4272 81.8287 69.019L81.0845 68.8744L80.5679 71.5321L84.2887 72.2553L81.7057 85.5438L84.8949 86.1637L88.7694 66.231L85.5802 65.6111L85.3787 66.6476ZM106.887 82.6055C106.499 82.6129 105.915 82.6373 104.586 82.379C102.593 81.9915 101.675 81.0407 102.093 78.888L102.687 75.8316L99.4979 75.2117L98.9038 78.2681C98.1083 82.3609 99.6063 84.4449 103.752 85.2508C104.603 85.4161 105.602 85.5275 106.324 85.5024L105.42 90.1533L108.609 90.7732L111.192 77.4848L108.003 76.8648L106.887 82.6055ZM116.073 92.5C117.907 92.8564 119.578 92.4916 120.733 91.0889L120.351 93.0556L123.487 93.6652L125.284 84.4164C125.889 81.3069 123.41 79.584 120.487 79.0158C117.51 78.4372 114.435 79.2184 113.763 82.6734L117.085 83.3192C117.375 81.8309 118.535 81.2564 119.996 81.5406C121.378 81.8092 122.323 82.6271 122.121 83.6636C121.604 86.3213 113.463 82.091 112.352 87.805C111.83 90.4893 113.788 92.0557 116.073 92.5ZM115.662 88.2278C115.993 86.5269 119.237 87.4333 121.534 86.9695L121.415 87.5808C121.022 89.6006 119.115 90.3331 117.254 89.9714C116.191 89.7648 115.482 89.158 115.662 88.2278ZM137.528 88.0926L140.876 88.7435C141.203 85.3594 138.9 82.5948 135.312 81.8974C131.485 81.1535 128.088 83.4445 127.298 87.5107C126.507 91.577 128.798 94.9735 132.625 95.7174C136.32 96.4355 139.591 94.6443 140.433 91.1672L137.137 90.5266C136.494 92.415 134.868 93.1194 133.194 92.794C131.2 92.4065 130.022 90.5226 130.487 88.1307C130.952 85.7387 132.75 84.4334 134.744 84.8209C136.418 85.1463 137.656 86.2972 137.528 88.0926ZM153.985 99.5934L155.999 89.2284L159.986 90.0033L160.554 87.0799L149.392 84.9101L148.824 87.8336L152.81 88.6085L150.796 98.9735L153.985 99.5934ZM173.519 97.5985C173.613 97.2582 173.707 96.9178 173.779 96.5458C174.569 92.4795 172.332 89.0933 168.531 88.3546C164.731 87.6158 161.387 89.9171 160.597 93.9834C159.806 98.0497 162.044 101.436 165.845 102.175C168.981 102.784 171.582 101.745 172.917 99.1363L169.462 98.4647C168.856 99.3123 167.929 99.6836 166.52 99.4098C164.553 99.0276 163.495 97.6634 163.526 95.6561L173.519 97.5985ZM167.989 91.1452C169.849 91.5068 170.865 92.8075 170.849 94.735L163.992 93.4022C164.699 91.609 166.128 90.7835 167.989 91.1452ZM181.084 105.137C184.964 105.891 188.414 103.61 189.204 99.5442C189.995 95.4779 187.651 92.0711 183.77 91.3168C179.89 90.5626 176.441 92.8432 175.65 96.9095C174.86 100.976 177.204 104.383 181.084 105.137ZM181.652 102.213C179.606 101.816 178.374 99.9213 178.839 97.5294C179.304 95.1375 181.156 93.8425 183.202 94.2403C185.249 94.6381 186.48 96.5323 186.015 98.9242C185.55 101.316 183.699 102.611 181.652 102.213ZM192.603 113.995L194.22 105.677C194.993 107.096 196.235 108.082 197.83 108.392C201.471 109.1 204.761 106.788 205.551 102.722C206.342 98.6554 204.157 95.2796 200.516 94.5718C198.921 94.2619 197.4 94.7108 196.152 95.737L196.478 94.0627L193.289 93.4428L189.414 113.375L192.603 113.995ZM197.999 105.391C195.953 104.993 194.721 103.099 195.186 100.707C195.651 98.315 197.503 97.02 199.549 97.4178C201.595 97.8156 202.827 99.7098 202.362 102.102C201.897 104.494 200.046 105.789 197.999 105.391ZM219.415 112.312L221.998 99.0233L217.905 98.2277L210.764 107.155L212.696 97.2152L209.64 96.6211L207.057 109.91L211.149 110.705L218.285 101.804L216.359 111.718L219.415 112.312ZM235.506 115.44L238.089 102.151L233.997 101.356L226.855 110.283L228.787 100.343L225.731 99.749L223.148 113.037L227.241 113.833L234.377 104.932L232.45 114.846L235.506 115.44ZM269.966 115.656L270.38 113.53L246.46 108.881L246.047 111.007L269.966 115.656ZM49.8065 96.4301L49.2382 99.3535L55.6167 100.593L54.9968 103.783L58.186 104.403L58.8059 101.213L61.1979 101.678L61.7661 98.7548L59.3742 98.2898L62.0605 84.4698L57.2767 83.5399L49.8065 96.4301ZM52.411 96.9363L58.3289 86.6405L56.185 97.6699L52.411 96.9363ZM79.0616 100.627C78.674 100.635 78.0901 100.659 76.7612 100.401C74.768 100.013 73.8495 99.0625 74.268 96.9098L74.8621 93.8535L71.6728 93.2335L71.0787 96.2899C70.2832 100.383 71.7812 102.467 75.9272 103.273C76.7777 103.438 77.7765 103.549 78.4985 103.524L77.5944 108.175L80.7837 108.795L83.3667 95.5066L80.1775 94.8867L79.0616 100.627ZM88.2481 110.522C90.0819 110.878 91.7525 110.513 92.9078 109.111L92.5255 111.077L95.6616 111.687L97.4593 102.438C98.0638 99.3288 95.5854 97.6059 92.6619 97.0376C89.6853 96.459 86.6099 97.2403 85.9383 100.695L89.2604 101.341C89.5497 99.8527 90.7094 99.2783 92.1712 99.5624C93.5532 99.831 94.4974 100.649 94.2959 101.685C93.7793 104.343 85.6378 100.113 84.5271 105.827C84.0053 108.511 85.9625 110.078 88.2481 110.522ZM87.8374 106.25C88.168 104.549 91.4119 105.455 93.7085 104.991L93.5897 105.603C93.1971 107.622 91.2895 108.355 89.4291 107.993C88.366 107.787 87.6566 107.18 87.8374 106.25ZM109.703 106.114L113.051 106.765C113.378 103.381 111.075 100.617 107.487 99.9192C103.66 99.1753 100.263 101.466 99.4727 105.533C98.6823 109.599 100.973 112.995 104.8 113.739C108.495 114.457 111.766 112.666 112.608 109.189L109.312 108.548C108.669 110.437 107.043 111.141 105.369 110.816C103.375 110.428 102.197 108.544 102.662 106.152C103.127 103.761 104.925 102.455 106.918 102.843C108.593 103.168 109.831 104.319 109.703 106.114ZM118.069 116.318C119.903 116.675 121.574 116.31 122.729 114.907L122.347 116.874L125.483 117.484L127.281 108.235C127.885 105.125 125.407 103.403 122.483 102.834C119.506 102.256 116.431 103.037 115.759 106.492L119.082 107.138C119.371 105.649 120.531 105.075 121.992 105.359C123.374 105.628 124.319 106.446 124.117 107.482C123.601 110.14 115.459 105.909 114.348 111.623C113.826 114.308 115.784 115.874 118.069 116.318ZM117.659 112.046C117.989 110.345 121.233 111.252 123.53 110.788L123.411 111.399C123.018 113.419 121.111 114.152 119.25 113.79C118.187 113.583 117.478 112.976 117.659 112.046ZM138.247 119.965L140.262 109.6L145.444 110.607L143.429 120.972L146.619 121.592L149.202 108.304L137.641 106.056L135.058 119.345L138.247 119.965ZM152.242 129.581L153.859 121.262C154.632 122.681 155.874 123.667 157.469 123.977C161.11 124.685 164.4 122.373 165.19 118.307C165.981 114.241 163.796 110.865 160.155 110.157C158.56 109.847 157.039 110.296 155.791 111.322L156.117 109.648L152.928 109.028L149.053 128.961L152.242 129.581ZM157.638 120.976C155.592 120.578 154.36 118.684 154.825 116.292C155.29 113.9 157.142 112.605 159.188 113.003C161.235 113.401 162.466 115.295 162.001 117.687C161.536 120.079 159.685 121.374 157.638 120.976ZM170.445 126.499C172.278 126.856 173.949 126.491 175.104 125.088L174.722 127.055L177.858 127.664L179.656 118.416C180.26 115.306 177.782 113.583 174.858 113.015C171.882 112.436 168.806 113.218 168.135 116.673L171.457 117.318C171.746 115.83 172.906 115.256 174.368 115.54C175.75 115.808 176.694 116.626 176.492 117.663C175.976 120.321 167.834 116.09 166.723 121.804C166.202 124.488 168.159 126.055 170.445 126.499ZM170.034 122.227C170.364 120.526 173.608 121.432 175.905 120.969L175.786 121.58C175.393 123.6 173.486 124.332 171.626 123.971C170.562 123.764 169.853 123.157 170.034 122.227ZM187.08 115.666L183.891 115.047L181.308 128.335L184.497 128.955L185.856 121.965L190.211 130.066L194.198 130.841L189.416 122.381L196.435 117.485L192.236 116.669L185.954 121.46L187.08 115.666ZM201.115 132.185L203.13 121.82L207.116 122.595L207.684 119.672L196.522 117.502L195.954 120.425L199.94 121.2L197.926 131.565L201.115 132.185ZM219.724 135.802L222.307 122.514L218.214 121.718L211.073 130.646L213.005 120.706L209.949 120.112L207.366 133.4L211.458 134.196L218.594 125.295L216.668 135.208L219.724 135.802ZM229.229 123.859L226.04 123.24L223.457 136.528L226.646 137.148L228.005 130.158L232.36 138.259L236.347 139.034L231.565 130.574L238.584 125.678L234.385 124.862L228.103 129.653L229.229 123.859ZM250.843 141.851L253.426 128.563L249.333 127.767L242.192 136.694L244.124 126.755L241.068 126.161L238.485 139.449L242.577 140.245L249.713 131.344L247.786 141.257L250.843 141.851Z" fill="white"/>
<rect x="234.296" y="127.856" width="77.9414" height="42.6626" rx="21.3313" transform="rotate(31 234.296 127.856)" fill="#FF9E00"/>
<mask id="mask0_1_5296" style="mask-type:alpha" maskUnits="userSpaceOnUse" x="220" y="135" width="74" height="62">
<rect x="234.294" y="127.856" width="77.9414" height="42.6626" rx="21.3313" transform="rotate(31 234.294 127.856)" fill="#FF9E00"/>
</mask>
<g mask="url(#mask0_1_5296)">
<g filter="url(#filter0_f_1_5296)">
<rect x="23.1637" y="45.0879" width="278.128" height="65.6348" rx="32.8174" transform="rotate(11 23.1637 45.0879)" fill="#FF6D00"/>
</g>
<g filter="url(#filter1_f_1_5296)">
<path d="M43.7491 78.1661L44.7616 72.957L50.3428 74.0419L49.3302 79.251L52.5195 79.8709L55.1025 66.5824L51.9133 65.9625L50.9111 71.1184L45.3299 70.0336L46.3321 64.8776L43.1429 64.2577L40.5599 77.5462L43.7491 78.1661ZM59.9849 81.5978C61.8187 81.9543 63.4894 81.5895 64.6446 80.1868L64.2623 82.1535L67.3984 82.7631L69.1962 73.5143C69.8006 70.4048 67.3222 68.6819 64.3988 68.1136C61.4222 67.535 58.3467 68.3163 57.6751 71.7713L60.9972 72.417C61.2865 70.9287 62.4463 70.3543 63.908 70.6384C65.29 70.9071 66.2343 71.725 66.0328 72.7615C65.5162 75.4192 57.3746 71.1888 56.2639 76.9029C55.7422 79.5871 57.6993 81.1536 59.9849 81.5978ZM59.5742 77.3257C59.9048 75.6248 63.1487 76.5311 65.4454 76.0674L65.3265 76.6786C64.9339 78.6985 63.0264 79.4309 61.166 79.0693C60.1029 78.8627 59.3934 78.2559 59.5742 77.3257ZM85.3771 66.6476C84.969 68.7472 83.9266 69.4272 81.8271 69.019L81.0829 68.8744L80.5663 71.5321L84.2871 72.2553L81.7041 85.5438L84.8933 86.1637L88.7678 66.231L85.5786 65.6111L85.3771 66.6476ZM106.885 82.6055C106.498 82.6129 105.914 82.6373 104.585 82.379C102.591 81.9915 101.673 81.0407 102.091 78.888L102.686 75.8316L99.4964 75.2117L98.9023 78.2681C98.1067 82.3609 99.6047 84.4449 103.751 85.2508C104.601 85.4161 105.6 85.5275 106.322 85.5024L105.418 90.1533L108.607 90.7732L111.19 77.4848L108.001 76.8648L106.885 82.6055ZM116.072 92.5C117.905 92.8564 119.576 92.4916 120.731 91.0889L120.349 93.0556L123.485 93.6652L125.283 84.4164C125.887 81.3069 123.409 79.584 120.485 79.0158C117.509 78.4372 114.433 79.2184 113.762 82.6734L117.084 83.3192C117.373 81.8309 118.533 81.2564 119.995 81.5406C121.377 81.8092 122.321 82.6271 122.119 83.6636C121.603 86.3213 113.461 82.091 112.351 87.805C111.829 90.4893 113.786 92.0557 116.072 92.5ZM115.661 88.2278C115.992 86.5269 119.235 87.4333 121.532 86.9695L121.413 87.5808C121.021 89.6006 119.113 90.3331 117.253 89.9714C116.19 89.7648 115.48 89.158 115.661 88.2278ZM137.526 88.0926L140.875 88.7435C141.202 85.3594 138.898 82.5948 135.31 81.8974C131.483 81.1535 128.087 83.4445 127.296 87.5107C126.506 91.577 128.797 94.9735 132.624 95.7174C136.318 96.4355 139.59 94.6443 140.431 91.1672L137.136 90.5266C136.493 92.415 134.866 93.1194 133.192 92.794C131.199 92.4065 130.02 90.5226 130.485 88.1307C130.95 85.7387 132.749 84.4334 134.742 84.8209C136.416 85.1463 137.654 86.2972 137.526 88.0926ZM153.983 99.5934L155.998 89.2284L159.984 90.0033L160.553 87.0799L149.39 84.9101L148.822 87.8336L152.809 88.6085L150.794 98.9735L153.983 99.5934ZM173.518 97.5985C173.611 97.2582 173.705 96.9178 173.777 96.5458C174.568 92.4795 172.33 89.0933 168.529 88.3546C164.729 87.6158 161.386 89.9171 160.595 93.9834C159.805 98.0497 162.043 101.436 165.843 102.175C168.979 102.784 171.581 101.745 172.915 99.1363L169.46 98.4647C168.854 99.3123 167.927 99.6836 166.518 99.4098C164.552 99.0276 163.493 97.6634 163.525 95.6561L173.518 97.5985ZM167.987 91.1452C169.847 91.5068 170.863 92.8075 170.847 94.735L163.99 93.4022C164.697 91.609 166.127 90.7835 167.987 91.1452ZM181.083 105.137C184.963 105.891 188.412 103.61 189.203 99.5442C189.993 95.4779 187.649 92.0711 183.769 91.3168C179.889 90.5626 176.439 92.8432 175.649 96.9095C174.858 100.976 177.202 104.383 181.083 105.137ZM181.651 102.213C179.604 101.816 178.373 99.9213 178.838 97.5294C179.303 95.1375 181.154 93.8425 183.201 94.2403C185.247 94.6381 186.479 96.5323 186.014 98.9242C185.549 101.316 183.697 102.611 181.651 102.213ZM192.602 113.995L194.219 105.677C194.991 107.096 196.233 108.082 197.828 108.392C201.469 109.1 204.759 106.788 205.55 102.722C206.34 98.6554 204.155 95.2796 200.514 94.5718C198.92 94.2619 197.398 94.7108 196.151 95.737L196.476 94.0627L193.287 93.4428L189.412 113.375L192.602 113.995ZM197.998 105.391C195.951 104.993 194.72 103.099 195.185 100.707C195.65 98.315 197.501 97.02 199.547 97.4178C201.594 97.8156 202.825 99.7098 202.36 102.102C201.896 104.494 200.044 105.789 197.998 105.391ZM219.413 112.312L221.996 99.0233L217.903 98.2277L210.762 107.155L212.694 97.2152L209.638 96.6211L207.055 109.91L211.148 110.705L218.284 101.804L216.357 111.718L219.413 112.312ZM235.505 115.44L238.088 102.151L233.995 101.356L226.854 110.283L228.786 100.343L225.73 99.749L223.146 113.037L227.239 113.833L234.375 104.932L232.448 114.846L235.505 115.44ZM269.965 115.656L270.378 113.53L246.459 108.881L246.046 111.007L269.965 115.656ZM49.8049 96.4301L49.2367 99.3535L55.6151 100.593L54.9952 103.783L58.1844 104.403L58.8044 101.213L61.1963 101.678L61.7645 98.7548L59.3726 98.2898L62.059 84.4698L57.2751 83.5399L49.8049 96.4301ZM52.4095 96.9363L58.3273 86.6405L56.1834 97.6699L52.4095 96.9363ZM79.06 100.627C78.6724 100.635 78.0885 100.659 76.7596 100.401C74.7664 100.013 73.8479 99.0625 74.2664 96.9098L74.8605 93.8535L71.6713 93.2335L71.0772 96.2899C70.2816 100.383 71.7796 102.467 75.9256 103.273C76.7761 103.438 77.7749 103.549 78.4969 103.524L77.5929 108.175L80.7821 108.795L83.3651 95.5066L80.1759 94.8867L79.06 100.627ZM88.2465 110.522C90.0803 110.878 91.7509 110.513 92.9062 109.111L92.5239 111.077L95.66 111.687L97.4578 102.438C98.0622 99.3288 95.5838 97.6059 92.6603 97.0376C89.6837 96.459 86.6083 97.2403 85.9367 100.695L89.2588 101.341C89.5481 99.8527 90.7078 99.2783 92.1696 99.5624C93.5516 99.831 94.4958 100.649 94.2944 101.685C93.7778 104.343 85.6362 100.113 84.5255 105.827C84.0037 108.511 85.9609 110.078 88.2465 110.522ZM87.8358 106.25C88.1664 104.549 91.4103 105.455 93.7069 104.991L93.5881 105.603C93.1955 107.622 91.2879 108.355 89.4275 107.993C88.3645 107.787 87.655 107.18 87.8358 106.25ZM109.701 106.114L113.05 106.765C113.376 103.381 111.073 100.617 107.485 99.9192C103.658 99.1753 100.262 101.466 99.4711 105.533C98.6807 109.599 100.972 112.995 104.799 113.739C108.493 114.457 111.765 112.666 112.606 109.189L109.311 108.548C108.668 110.437 107.041 111.141 105.367 110.816C103.374 110.428 102.195 108.544 102.66 106.152C103.125 103.761 104.924 102.455 106.917 102.843C108.591 103.168 109.829 104.319 109.701 106.114ZM118.068 116.318C119.901 116.675 121.572 116.31 122.727 114.907L122.345 116.874L125.481 117.484L127.279 108.235C127.883 105.125 125.405 103.403 122.482 102.834C119.505 102.256 116.429 103.037 115.758 106.492L119.08 107.138C119.369 105.649 120.529 105.075 121.991 105.359C123.373 105.628 124.317 106.446 124.116 107.482C123.599 110.14 115.457 105.909 114.347 111.623C113.825 114.308 115.782 115.874 118.068 116.318ZM117.657 112.046C117.988 110.345 121.231 111.252 123.528 110.788L123.409 111.399C123.017 113.419 121.109 114.152 119.249 113.79C118.186 113.583 117.476 112.976 117.657 112.046ZM138.245 119.965L140.26 109.6L145.443 110.607L143.428 120.972L146.617 121.592L149.2 108.304L137.639 106.056L135.056 119.345L138.245 119.965ZM152.241 129.581L153.858 121.262C154.63 122.681 155.873 123.667 157.467 123.977C161.108 124.685 164.398 122.373 165.189 118.307C165.979 114.241 163.795 110.865 160.154 110.157C158.559 109.847 157.037 110.296 155.79 111.322L156.115 109.648L152.926 109.028L149.052 128.961L152.241 129.581ZM157.637 120.976C155.59 120.578 154.359 118.684 154.824 116.292C155.289 113.9 157.14 112.605 159.187 113.003C161.233 113.401 162.465 115.295 162 117.687C161.535 120.079 159.683 121.374 157.637 120.976ZM170.443 126.499C172.277 126.856 173.947 126.491 175.103 125.088L174.72 127.055L177.856 127.664L179.654 118.416C180.259 115.306 177.78 113.583 174.857 113.015C171.88 112.436 168.805 113.218 168.133 116.673L171.455 117.318C171.745 115.83 172.904 115.256 174.366 115.54C175.748 115.808 176.692 116.626 176.491 117.663C175.974 120.321 167.833 116.09 166.722 121.804C166.2 124.488 168.157 126.055 170.443 126.499ZM170.032 122.227C170.363 120.526 173.607 121.432 175.903 120.969L175.785 121.58C175.392 123.6 173.484 124.332 171.624 123.971C170.561 123.764 169.851 123.157 170.032 122.227ZM187.078 115.666L183.889 115.047L181.306 128.335L184.495 128.955L185.854 121.965L190.209 130.066L194.196 130.841L189.414 122.381L196.434 117.485L192.234 116.669L185.952 121.46L187.078 115.666ZM201.113 132.185L203.128 121.82L207.115 122.595L207.683 119.672L196.521 117.502L195.952 120.425L199.939 121.2L197.924 131.565L201.113 132.185ZM219.722 135.802L222.305 122.514L218.212 121.718L211.071 130.646L213.003 120.706L209.947 120.112L207.364 133.4L211.457 134.196L218.593 125.295L216.666 135.208L219.722 135.802ZM229.228 123.859L226.039 123.24L223.456 136.528L226.645 137.148L228.003 130.158L232.359 138.259L236.345 139.034L231.563 130.574L238.583 125.678L234.384 124.862L228.102 129.653L229.228 123.859ZM250.841 141.851L253.424 128.563L249.331 127.767L242.19 136.694L244.122 126.755L241.066 126.161L238.483 139.449L242.576 140.245L249.712 131.344L247.785 141.257L250.841 141.851Z" fill="white"/>
</g>
</g>
<path d="M232.473 160.095L238.414 163.664C240.828 165.115 242.982 164.893 244.321 162.665C245.199 161.203 244.945 159.787 243.919 158.602C245.168 158.784 246.246 158.358 246.985 157.128C248.198 155.109 247.336 153.232 245.201 151.949L239.445 148.491L232.473 160.095ZM243.468 153.309C244.907 154.173 245.231 155 244.604 156.044C244.018 157.019 243.094 157.19 241.655 156.326L238.8 154.61L240.613 151.593L243.468 153.309ZM241.059 158.368C242.359 159.149 242.683 160.134 242.042 161.201C241.4 162.269 240.379 162.445 239.079 161.664L235.761 159.67L237.741 156.374L241.059 158.368ZM250.196 171.06C253.561 173.082 257.56 172.105 259.693 168.554C261.827 165.003 260.813 161.014 257.447 158.992C254.082 156.97 250.084 157.947 247.95 161.498C245.817 165.049 246.831 169.038 250.196 171.06ZM251.479 168.925C249.46 167.712 248.863 165.236 250.271 162.893C251.68 160.549 254.146 159.914 256.165 161.127C258.184 162.34 258.781 164.816 257.373 167.159C255.964 169.503 253.498 170.138 251.479 168.925ZM263.203 180.328L275.528 170.172L273.207 168.777L264.022 176.493L266.5 164.747L264.179 163.353L261.035 178.994C259.205 180.358 257.9 180.742 256.438 179.864C255.881 179.529 255.417 179.092 255.059 178.688L253.832 180.73C254.19 181.135 254.77 181.641 255.42 182.032C258.274 183.747 260.569 182.504 263.203 180.328ZM276.218 178.483L283.376 166.991L280.87 165.485L274.083 177.2L276.218 178.483ZM271.525 183.875C272.337 184.364 273.368 184.067 273.829 183.301C274.303 182.512 274.08 181.463 273.268 180.975C272.479 180.5 271.402 180.769 270.928 181.558C270.467 182.324 270.736 183.401 271.525 183.875Z" fill="white"/>
<defs>
<filter id="filter0_f_1_5296" x="8.08837" y="42.5364" width="290.644" height="122.601" filterUnits="userSpaceOnUse" color-interpolation-filters="sRGB">
<feFlood flood-opacity="0" result="BackgroundImageFix"/>
<feBlend mode="normal" in="SourceGraphic" in2="BackgroundImageFix" result="shape"/>
<feGaussianBlur stdDeviation="4.10218" result="effect1_foregroundBlur_1_5296"/>
</filter>
<filter id="filter1_f_1_5296" x="31.598" y="54.3318" width="244.309" height="100.074" filterUnits="userSpaceOnUse" color-interpolation-filters="sRGB">
<feFlood flood-opacity="0" result="BackgroundImageFix"/>
<feBlend mode="normal" in="SourceGraphic" in2="BackgroundImageFix" result="shape"/>
<feGaussianBlur stdDeviation="1.64087" result="effect1_foregroundBlur_1_5296"/>
</filter>
</defs>
</svg>
