<svg width="276" height="250" viewBox="0 0 276 250" fill="none" xmlns="http://www.w3.org/2000/svg">
<rect x="0.550781" y="22.5889" width="256" height="228" rx="20" transform="rotate(-5 0.550781 22.5889)" fill="#F9EBFF"/>
<path d="M35.9906 97.2241L36.3587 101.432C37.4548 113.96 47.2214 119.851 58.6019 118.856C69.9825 117.86 78.5777 110.362 77.4816 97.8343L77.1135 93.6263C76.4358 85.8799 71.7593 80.8925 65.3088 78.7586C70.0559 75.7414 72.9931 70.7625 72.4074 64.068L72.1062 60.6252C71.1356 49.5316 62.3923 44.3218 52.1594 45.217C41.9265 46.1123 34.2207 52.7612 35.1912 63.8548L35.4924 67.2977C36.0781 73.9921 39.8353 78.3854 45.0342 80.5324C39.0522 83.754 35.3129 89.4777 35.9906 97.2241ZM44.83 63.8788C44.2694 57.4713 47.7649 54.4672 52.9292 54.0154C58.1891 53.5552 62.0575 55.9151 62.618 62.3226L62.8356 64.8091C63.438 71.6948 60.2545 74.9607 54.8034 75.4376C49.4478 75.9061 45.65 73.251 45.0475 66.3653L44.83 63.8788ZM45.5624 96.4831C44.8596 88.4498 48.9743 84.8133 55.5731 84.236C62.2675 83.6503 66.8556 86.5254 67.5584 94.5587L67.8429 97.8103C68.529 105.652 64.5266 109.472 57.8322 110.057C51.2334 110.635 46.533 107.577 45.8469 99.7347L45.5624 96.4831ZM109.673 114.388C122.297 113.283 129.174 104.876 127.794 89.096L125.468 62.5096C124.096 46.8255 115.854 39.6444 103.231 40.7489C90.7024 41.8449 83.7377 50.3563 85.1099 66.0404L87.4359 92.6269C88.8165 108.407 97.145 115.484 109.673 114.388ZM108.903 105.589C102.209 106.175 97.9449 102.597 96.9994 91.7902L94.6734 65.2037C93.7363 54.4927 97.4015 50.1246 104 49.5473C110.599 48.9699 114.967 52.6352 115.904 63.3463L118.23 89.9327C119.176 100.739 115.502 105.012 108.903 105.589ZM149.421 75.7363C157.837 75 163.439 68.5351 162.284 55.3375C161.138 42.2356 154.482 36.6505 146.066 37.3867C137.65 38.123 131.969 44.7875 133.115 57.8895C134.27 71.087 141.005 76.4725 149.421 75.7363ZM146.079 110.239L151.817 109.737L195.272 33.6599L189.534 34.162L146.079 110.239ZM148.819 68.8506C144.515 69.2271 141.511 65.7316 140.766 57.2201C140.013 48.613 142.348 44.4577 146.651 44.0812C150.955 43.7047 153.88 47.3998 154.633 56.0069C155.378 64.5184 153.122 68.474 148.819 68.8506ZM195.286 106.512C203.702 105.776 209.303 99.3109 208.149 86.1133C207.003 73.0113 200.346 67.4262 191.931 68.1625C183.515 68.8988 177.834 75.5632 178.98 88.6652C180.135 101.863 186.87 107.248 195.286 106.512ZM194.683 99.6263C190.38 100.003 187.376 96.5073 186.631 87.9958C185.878 79.3887 188.213 75.2334 192.516 74.8569C196.82 74.4804 199.745 78.1755 200.498 86.7826C201.243 95.2941 198.987 99.2498 194.683 99.6263Z" fill="black"/>
<path d="M41.3763 150.453L43.8994 140.259L41.7476 140.447L40.0922 147.548L37.2468 140.841L35.095 141.029L39.3305 150.614C38.9203 151.915 38.3445 152.562 37.3403 152.649C36.91 152.687 36.4897 152.634 36.1396 152.556L36.3059 154.457C36.656 154.534 37.1839 154.578 37.7039 154.533C39.9812 154.334 40.8161 152.725 41.3763 150.453ZM50.733 143.564C50.4867 143.639 50.118 143.762 49.2214 143.84C47.8765 143.958 47.1153 143.519 46.9883 142.066L46.8078 140.004L44.6561 140.192L44.8365 142.255C45.0781 145.016 46.4173 146.073 49.2146 145.829C49.7884 145.778 50.4472 145.667 50.904 145.518L51.1785 148.656L53.3303 148.468L52.5459 139.502L50.3941 139.69L50.733 143.564ZM63.6885 143.767C63.6861 143.533 63.6836 143.298 63.6616 143.047C63.4216 140.303 61.371 138.549 58.8067 138.774C56.2425 138.998 54.5276 141.081 54.7676 143.825C55.0076 146.569 57.0583 148.322 59.6225 148.098C61.7384 147.913 63.2106 146.772 63.5854 144.86L61.2543 145.064C61.0223 145.717 60.4978 146.124 59.5475 146.207C58.2205 146.324 57.2939 145.646 56.9463 144.357L63.6885 143.767ZM58.9715 140.657C60.2267 140.547 61.1143 141.192 61.4572 142.427L56.8309 142.831C56.9542 141.556 57.7163 140.766 58.9715 140.657ZM68.0459 147.181L67.7384 143.666L71.504 143.336L71.8115 146.851L73.9633 146.663L73.1789 137.697L71.0271 137.885L71.3315 141.364L67.5659 141.693L67.2615 138.215L65.1097 138.403L65.8941 147.369L68.0459 147.181ZM84.7593 145.718L83.9749 136.753L81.2134 136.994L78.2856 144.008L77.6988 137.302L75.6367 137.482L76.4211 146.448L79.1826 146.206L82.112 139.21L82.6971 145.899L84.7593 145.718ZM88.5956 136.348L86.4439 136.537L87.2283 145.502L89.38 145.314L88.9674 140.598L93.2353 144.977L95.925 144.741L91.3187 140.212L94.9075 135.796L92.0744 136.044L88.9376 140.257L88.5956 136.348ZM100.735 144.501C103.353 144.272 105.14 142.183 104.9 139.439C104.66 136.695 102.537 134.948 99.9195 135.177C97.3015 135.406 95.5148 137.496 95.7548 140.239C95.9948 142.983 98.1172 144.73 100.735 144.501ZM100.563 142.529C99.1819 142.65 98.0478 141.665 97.9066 140.051C97.7654 138.437 98.7113 137.27 100.092 137.149C101.473 137.029 102.607 138.013 102.748 139.627C102.889 141.241 101.943 142.408 100.563 142.529ZM107.126 143.761L111.86 143.347C113.761 143.181 114.814 142.203 114.659 140.428C114.565 139.352 113.928 138.685 113.003 138.441C113.673 138.039 114.069 137.408 113.989 136.494C113.851 134.916 112.672 134.242 111.04 134.385L106.342 134.796L107.126 143.761ZM108.545 136.229L110.554 136.053C111.54 135.967 111.891 136.262 111.949 136.925C112.001 137.517 111.711 137.922 110.725 138.008L108.716 138.184L108.545 136.229ZM108.858 139.797L111.189 139.593C112.031 139.52 112.443 139.881 112.501 140.545C112.562 141.244 112.221 141.689 111.379 141.763L109.047 141.967L108.858 139.797ZM123.074 136.964L123.215 138.577L124.65 138.452C125.529 138.375 125.961 138.771 126.019 139.434C126.072 140.044 125.725 140.616 124.452 140.728C123.107 140.846 122.49 140.195 122.392 139.083L120.241 139.271C120.435 141.495 121.981 142.642 124.581 142.415C127.127 142.192 128.324 141.003 128.177 139.318C128.097 138.403 127.571 137.763 126.606 137.468C127.378 137.003 127.684 136.163 127.617 135.392C127.497 134.029 126.294 132.869 123.765 133.091C121.111 133.323 119.976 135.012 120.136 136.841L122.288 136.653C122.189 135.523 122.731 134.898 123.914 134.794C125.026 134.697 125.515 135.124 125.57 135.751C125.623 136.361 125.334 136.766 124.509 136.838L123.074 136.964ZM132.724 141.703C133.962 141.594 134.962 141.055 135.444 139.947L135.56 141.274L137.676 141.089L137.13 134.849C136.946 132.751 135.047 132.104 133.074 132.276C131.066 132.452 129.243 133.515 129.447 135.846L131.689 135.65C131.601 134.646 132.237 134.066 133.223 133.98C134.156 133.898 134.909 134.248 134.97 134.947C135.127 136.74 129.149 135.529 129.486 139.384C129.644 141.195 131.182 141.837 132.724 141.703ZM131.679 139.048C131.579 137.9 133.818 137.885 135.2 137.167L135.237 137.58C135.356 138.943 134.271 139.76 133.016 139.87C132.298 139.933 131.734 139.675 131.679 139.048ZM141.321 131.735L139.169 131.924L139.953 140.889L142.105 140.701L141.693 135.985L145.96 140.364L148.65 140.129L144.044 135.599L147.633 131.183L144.8 131.431L141.663 135.644L141.321 131.735ZM152.272 139.992C153.51 139.884 154.51 139.345 154.992 138.237L155.108 139.564L157.224 139.378L156.678 133.138C156.494 131.04 154.595 130.393 152.622 130.566C150.614 130.742 148.791 131.805 148.995 134.136L151.237 133.94C151.149 132.935 151.785 132.356 152.771 132.269C153.704 132.188 154.457 132.538 154.518 133.237C154.675 135.03 148.697 133.818 149.034 137.674C149.192 139.485 150.73 140.127 152.272 139.992ZM151.227 137.337C151.127 136.19 153.366 136.175 154.748 135.457L154.785 135.87C154.904 137.232 153.819 138.05 152.564 138.16C151.846 138.223 151.282 137.965 151.227 137.337ZM161.653 138.991L161.346 135.476L165.111 135.147L165.419 138.661L167.571 138.473L166.786 129.507L164.634 129.696L164.939 133.174L161.173 133.504L160.869 130.025L158.717 130.213L159.501 139.179L161.653 138.991ZM174.783 132.711C174.537 132.786 174.168 132.909 173.271 132.987C171.926 133.105 171.165 132.666 171.038 131.213L170.858 129.151L168.706 129.34L168.886 131.402C169.128 134.163 170.467 135.22 173.265 134.976C173.838 134.925 174.497 134.814 174.954 134.665L175.229 137.803L177.38 137.615L176.596 128.649L174.444 128.837L174.783 132.711ZM188.176 136.671L187.391 127.705L184.63 127.946L181.702 134.96L181.115 128.254L179.053 128.434L179.837 137.4L182.599 137.158L185.528 130.162L186.113 136.851L188.176 136.671ZM190.645 136.455L195.378 136.04C197.279 135.874 198.332 134.897 198.177 133.121C198.083 132.045 197.446 131.378 196.521 131.134C197.191 130.732 197.587 130.101 197.507 129.187C197.369 127.609 196.19 126.935 194.558 127.078L189.86 127.489L190.645 136.455ZM192.063 128.922L194.072 128.746C195.058 128.66 195.409 128.955 195.467 129.618C195.519 130.21 195.229 130.615 194.243 130.701L192.234 130.877L192.063 128.922ZM192.376 132.491L194.707 132.287C195.55 132.213 195.961 132.574 196.019 133.238C196.08 133.937 195.739 134.383 194.897 134.456L192.565 134.66L192.376 132.491ZM203.086 135.547C204.323 135.438 205.324 134.899 205.805 133.791L205.921 135.118L208.037 134.933L207.491 128.693C207.308 126.595 205.408 125.948 203.436 126.12C201.427 126.296 199.605 127.359 199.809 129.69L202.051 129.494C201.963 128.49 202.599 127.91 203.585 127.824C204.517 127.742 205.271 128.092 205.332 128.791C205.489 130.584 199.51 129.373 199.848 133.228C200.006 135.039 201.544 135.682 203.086 135.547ZM202.041 132.892C201.94 131.744 204.179 131.729 205.562 131.012L205.598 131.424C205.717 132.787 204.633 133.605 203.377 133.714C202.66 133.777 202.096 133.519 202.041 132.892ZM212.467 134.545L212.159 131.031L213.415 130.921C214.004 133.11 215.925 134.423 218.221 134.223C220.839 133.994 222.625 131.904 222.385 129.16C222.145 126.417 220.023 124.669 217.405 124.898C215.128 125.097 213.463 126.725 213.242 128.948L211.987 129.058L211.683 125.58L209.531 125.768L210.315 134.734L212.467 134.545ZM218.048 132.25C216.667 132.371 215.533 131.386 215.392 129.772C215.251 128.158 216.197 126.991 217.577 126.871C218.958 126.75 220.092 127.735 220.234 129.349C220.375 130.962 219.429 132.129 218.048 132.25ZM228.2 133.169L227.588 126.176L230.278 125.94L230.105 123.968L222.574 124.627L222.746 126.599L225.436 126.364L226.048 133.357L228.2 133.169ZM41.2013 172.617L40.5895 165.624L44.0861 165.318L44.698 172.311L46.8497 172.123L46.0653 163.157L38.2651 163.839L39.0495 172.805L41.2013 172.617ZM51.8578 176.202L51.3668 170.589C52.1204 171.354 53.0951 171.757 54.171 171.663C56.6277 171.448 58.3067 169.368 58.0667 166.624C57.8267 163.881 55.8119 162.124 53.3553 162.339C52.2794 162.433 51.3893 162.998 50.7801 163.883L50.6812 162.753L48.5294 162.941L49.706 176.39L51.8578 176.202ZM53.7295 169.714C52.3488 169.835 51.2146 168.85 51.0734 167.236C50.9322 165.622 51.8781 164.455 53.2589 164.335C54.6396 164.214 55.7737 165.199 55.9149 166.812C56.0561 168.426 55.1102 169.593 53.7295 169.714ZM64.2567 170.781C66.8747 170.552 68.6614 168.462 68.4214 165.718C68.1813 162.975 66.059 161.227 63.441 161.456C60.823 161.685 59.0363 163.775 59.2763 166.518C59.5163 169.262 61.6387 171.01 64.2567 170.781ZM64.0842 168.808C62.7034 168.929 61.5693 167.944 61.4281 166.33C61.2869 164.716 62.2328 163.549 63.6135 163.429C64.9942 163.308 66.1284 164.293 66.2696 165.907C66.4108 167.52 65.4649 168.687 64.0842 168.808ZM74.5236 167.895C73.135 167.926 72.0087 167.031 71.8675 165.417C71.7263 163.803 72.6801 162.726 74.0529 162.515L74.5236 167.895ZM76.2047 162.327C77.5933 162.296 78.7196 163.191 78.8608 164.805C79.002 166.419 78.0482 167.496 76.6754 167.707L76.2047 162.327ZM77.2244 173.983L76.8479 169.679C79.4581 169.36 81.2526 167.36 81.0126 164.617C80.7726 161.873 78.658 160.215 76.0322 160.355L75.6556 156.051L73.5039 156.239L73.8804 160.543C71.2702 160.862 69.4757 162.862 69.7157 165.605C69.9558 168.349 72.0703 170.007 74.6962 169.867L75.0727 174.171L77.2244 173.983ZM91.2299 164.446C91.2275 164.211 91.225 163.976 91.2031 163.725C90.963 160.982 88.9124 159.228 86.3482 159.452C83.7839 159.676 82.069 161.76 82.309 164.503C82.5491 167.247 84.5997 169.001 87.1639 168.776C89.2798 168.591 90.752 167.451 91.1268 165.539L88.7957 165.743C88.5637 166.395 88.0392 166.803 87.0889 166.886C85.7619 167.002 84.8353 166.324 84.4877 165.035L91.2299 164.446ZM86.5129 161.335C87.7681 161.225 88.6557 161.87 88.9986 163.105L84.3723 163.51C84.4956 162.234 85.2577 161.445 86.5129 161.335ZM99.06 162.116L101.319 161.919C100.908 159.696 98.9294 158.351 96.5087 158.563C93.9265 158.789 92.1757 160.876 92.4157 163.619C92.6558 166.363 94.7423 168.113 97.3244 167.888C99.8169 167.669 101.58 165.925 101.48 163.549L99.2566 163.743C99.1918 165.068 98.2815 165.816 97.1519 165.915C95.807 166.033 94.7087 165.045 94.5675 163.431C94.4263 161.817 95.3364 160.653 96.6812 160.536C97.8109 160.437 98.813 160.945 99.06 162.116ZM109.272 161.223L111.531 161.025C111.12 158.803 109.141 157.458 106.72 157.67C104.138 157.896 102.387 159.982 102.628 162.726C102.868 165.469 104.954 167.22 107.536 166.994C110.029 166.776 111.791 165.032 111.692 162.655L109.468 162.85C109.404 164.175 108.493 164.923 107.364 165.022C106.019 165.139 104.92 164.151 104.779 162.537C104.638 160.924 105.548 159.76 106.893 159.642C108.023 159.543 109.025 160.052 109.272 161.223ZM122.197 165.531L121.413 156.565L118.651 156.807L115.724 163.82L115.137 157.114L113.075 157.294L113.859 166.26L116.621 166.019L119.55 159.023L120.135 165.711L122.197 165.531ZM126.818 165.126L126.511 161.612L127.766 161.502C128.355 163.691 130.277 165.005 132.572 164.804C135.19 164.575 136.976 162.485 136.736 159.742C136.496 156.998 134.374 155.25 131.756 155.479C129.479 155.679 127.814 157.306 127.593 159.53L126.338 159.639L126.034 156.161L123.882 156.349L124.666 165.315L126.818 165.126ZM132.399 162.831C131.018 162.952 129.884 161.967 129.743 160.353C129.602 158.74 130.548 157.573 131.929 157.452C133.309 157.331 134.443 158.316 134.585 159.93C134.726 161.544 133.78 162.71 132.399 162.831ZM145.193 163.519L144.581 156.526L148.078 156.22L148.689 163.213L150.841 163.025L150.057 154.059L142.257 154.741L143.041 163.707L145.193 163.519ZM157.266 162.643C159.884 162.414 161.671 160.325 161.431 157.581C161.191 154.838 159.068 153.09 156.45 153.319C153.832 153.548 152.045 155.638 152.285 158.381C152.526 161.125 154.648 162.872 157.266 162.643ZM157.093 160.671C155.713 160.792 154.578 159.807 154.437 158.193C154.296 156.579 155.242 155.412 156.623 155.291C158.003 155.171 159.138 156.155 159.279 157.769C159.42 159.383 158.474 160.55 157.093 160.671ZM171.22 161.242L170.436 152.276L163.604 152.874C163.974 157.106 163.972 158.533 163.827 159.142C163.708 159.64 163.409 159.938 162.96 159.977L162.853 159.986L163.025 161.959L163.348 161.93C164.944 161.791 165.696 161.093 165.866 158.693C165.932 157.802 165.894 156.54 165.749 154.674L168.456 154.437L169.068 161.43L171.22 161.242ZM175.828 160.839L175.521 157.324L179.286 156.995L179.594 160.509L181.745 160.321L180.961 151.355L178.809 151.543L179.114 155.022L175.348 155.352L175.044 151.873L172.892 152.061L173.676 161.027L175.828 160.839ZM188.164 159.94C190.782 159.711 192.569 157.621 192.329 154.878C192.089 152.134 189.966 150.387 187.348 150.616C184.73 150.845 182.943 152.934 183.183 155.678C183.423 158.421 185.546 160.169 188.164 159.94ZM187.991 157.968C186.611 158.088 185.476 157.104 185.335 155.49C185.194 153.876 186.14 152.709 187.521 152.588C188.901 152.467 190.036 153.452 190.177 155.066C190.318 156.68 189.372 157.847 187.991 157.968ZM200.18 153.269L202.439 153.072C202.028 150.849 200.049 149.505 197.628 149.716C195.046 149.942 193.295 152.029 193.535 154.772C193.775 157.516 195.862 159.267 198.444 159.041C200.937 158.823 202.699 157.078 202.6 154.702L200.376 154.897C200.311 156.221 199.401 156.969 198.271 157.068C196.927 157.186 195.828 156.198 195.687 154.584C195.546 152.97 196.456 151.806 197.801 151.689C198.931 151.59 199.933 152.099 200.18 153.269ZM208.36 157.993L207.748 150.999L210.437 150.764L210.265 148.791L202.734 149.45L202.906 151.423L205.596 151.187L206.208 158.181L208.36 157.993ZM219.661 153.878C219.506 152.103 218.104 150.942 215.826 151.142L214.141 151.289L213.894 148.474L211.743 148.662L212.527 157.628L216.382 157.291C218.767 157.082 219.817 155.653 219.661 153.878ZM214.298 153.082L215.822 152.949C216.934 152.852 217.437 153.241 217.508 154.048C217.577 154.837 217.158 155.416 216.046 155.513L214.522 155.646L214.298 153.082ZM223.822 156.64L223.515 153.125L224.77 153.015C225.359 155.204 227.281 156.518 229.576 156.317C232.194 156.088 233.981 153.998 233.741 151.255C233.501 148.511 231.378 146.764 228.76 146.993C226.483 147.192 224.819 148.819 224.598 151.043L223.342 151.153L223.038 147.674L220.886 147.862L221.671 156.828L223.822 156.64ZM229.404 154.345C228.023 154.465 226.889 153.48 226.748 151.867C226.606 150.253 227.552 149.086 228.933 148.965C230.314 148.844 231.448 149.829 231.589 151.443C231.73 153.057 230.784 154.224 229.404 154.345ZM236.61 155.702C237.399 155.633 237.903 154.992 237.837 154.239C237.77 153.468 237.164 152.943 236.375 153.012C235.604 153.079 235.08 153.703 235.148 154.474C235.213 155.228 235.839 155.769 236.61 155.702Z" fill="black"/>
<path d="M41.581 182.12L39.9782 195.812L42.1479 195.622L42.473 192.522L45.7365 192.236L46.595 195.233L48.7647 195.043L44.8087 181.838L41.581 182.12ZM42.677 190.516L43.3658 183.933L45.1874 190.297L42.677 190.516ZM55.2304 189.039C55.2546 187.663 56.1689 187.168 57.2986 187.069C58.4283 186.97 59.3618 187.521 59.7406 188.753L56.2619 189.057L56.4031 190.671L59.8818 190.366C59.7226 191.645 58.8989 192.35 57.7692 192.448C56.6395 192.547 55.6289 192.148 55.3194 190.675L53.0959 190.87C53.4105 193.227 55.4493 194.639 57.9418 194.421C60.5239 194.195 62.2747 192.108 62.0347 189.365C61.7947 186.621 59.7082 184.871 57.126 185.097C54.7053 185.308 52.9901 186.976 52.971 189.236L55.2304 189.039ZM67.8573 193.373L67.2454 186.379L69.9352 186.144L69.7626 184.172L62.2314 184.831L62.4039 186.803L65.0937 186.568L65.7055 193.561L67.8573 193.373ZM75.9855 192.842C78.6035 192.613 80.3902 190.524 80.1501 187.78C79.9101 185.037 77.7877 183.289 75.1697 183.518C72.5517 183.747 70.765 185.837 71.0051 188.58C71.2451 191.324 73.3675 193.071 75.9855 192.842ZM75.8129 190.87C74.4322 190.991 73.298 190.006 73.1569 188.392C73.0157 186.778 73.9616 185.611 75.3423 185.49C76.723 185.37 77.8572 186.354 77.9984 187.968C78.1396 189.582 77.1937 190.749 75.8129 190.87ZM92.9867 191.174L94.4889 183.562L95.1384 190.986L97.2902 190.798L96.5058 181.832L92.9195 182.146L91.7256 189.152L89.3153 182.461L85.6752 182.779L86.4596 191.745L88.432 191.573L87.7873 184.203L90.5838 191.384L92.9867 191.174ZM101.905 190.394L101.598 186.879L105.363 186.55L105.671 190.064L107.823 189.876L107.038 180.91L104.886 181.099L105.191 184.577L101.425 184.907L101.121 181.428L98.9689 181.616L99.7533 190.582L101.905 190.394ZM114.241 189.495C116.859 189.266 118.646 187.177 118.406 184.433C118.166 181.69 116.043 179.942 113.425 180.171C110.807 180.4 109.02 182.49 109.261 185.233C109.501 187.977 111.623 189.724 114.241 189.495ZM114.068 187.523C112.688 187.644 111.553 186.659 111.412 185.045C111.271 183.431 112.217 182.264 113.598 182.143C114.978 182.023 116.113 183.008 116.254 184.621C116.395 186.235 115.449 187.402 114.068 187.523ZM122.784 188.567L122.172 181.574L126.045 181.235L125.873 179.263L119.848 179.79L120.632 188.756L122.784 188.567ZM132.003 187.941C134.621 187.712 136.407 185.623 136.167 182.879C135.927 180.136 133.805 178.388 131.187 178.617C128.569 178.846 126.782 180.936 127.022 183.679C127.262 186.423 129.385 188.17 132.003 187.941ZM131.83 185.969C130.449 186.09 129.315 185.105 129.174 183.491C129.033 181.877 129.979 180.71 131.36 180.589C132.74 180.469 133.874 181.454 134.016 183.067C134.157 184.681 133.211 185.848 131.83 185.969ZM141.408 184.95L141.792 189.344L143.765 189.171L143.553 186.75L149.614 186.22L149.825 188.641L151.798 188.468L151.413 184.075L150.158 184.185L149.546 177.191L142.41 177.816C142.847 182.819 142.581 184.107 142.304 184.872L141.408 184.95ZM144.645 182.914C144.689 182.188 144.651 181.125 144.555 179.616L147.567 179.352L148.007 184.373L144.42 184.687C144.529 184.28 144.608 183.731 144.645 182.914ZM160.794 185.242L160.01 176.276L153.178 176.874C153.548 181.106 153.547 182.533 153.401 183.142C153.282 183.64 152.983 183.938 152.535 183.977L152.427 183.986L152.6 185.959L152.922 185.93C154.518 185.791 155.27 185.093 155.44 182.693C155.506 181.802 155.468 180.54 155.323 178.674L158.031 178.437L158.643 185.43L160.794 185.242ZM162.591 178.887C162.728 180.447 163.939 181.281 165.234 181.42L162.448 185.097L164.94 184.879L167.971 180.693L168.312 184.584L170.463 184.396L169.679 175.43L165.752 175.774C163.941 175.932 162.412 176.843 162.591 178.887ZM166.453 179.868C165.467 179.954 164.823 179.613 164.745 178.717C164.677 177.946 165.23 177.446 166.234 177.358L167.668 177.232L167.888 179.743L166.453 179.868ZM180.963 183.658C183.581 183.429 185.368 181.339 185.128 178.596C184.888 175.852 182.765 174.105 180.147 174.334C177.529 174.563 175.743 176.652 175.983 179.396C176.223 182.139 178.345 183.887 180.963 183.658ZM180.79 181.685C179.41 181.806 178.276 180.821 178.134 179.208C177.993 177.594 178.939 176.427 180.32 176.306C181.701 176.185 182.835 177.17 182.976 178.784C183.117 180.398 182.171 181.565 180.79 181.685ZM189.506 182.73L189.199 179.215L192.964 178.886L193.272 182.4L195.423 182.212L194.639 173.246L192.487 173.435L192.792 176.913L189.026 177.243L188.722 173.764L186.57 173.952L187.354 182.918L189.506 182.73ZM205.269 181.351L204.485 172.385L197.653 172.983C198.023 177.215 198.021 178.642 197.876 179.251C197.757 179.749 197.458 180.047 197.009 180.086L196.902 180.095L197.074 182.068L197.397 182.039C198.993 181.9 199.745 181.202 199.914 178.802C199.981 177.911 199.943 176.649 199.798 174.783L202.505 174.546L203.117 181.539L205.269 181.351ZM210.305 181.091C211.542 180.983 212.543 180.443 213.024 179.335L213.141 180.662L215.257 180.477L214.711 174.237C214.527 172.139 212.627 171.492 210.655 171.664C208.647 171.84 206.824 172.903 207.028 175.234L209.27 175.038C209.182 174.034 209.818 173.454 210.804 173.368C211.736 173.286 212.49 173.636 212.551 174.335C212.708 176.129 206.729 174.917 207.067 178.772C207.225 180.583 208.763 181.226 210.305 181.091ZM209.26 178.436C209.159 177.288 211.399 177.273 212.781 176.556L212.817 176.968C212.937 178.331 211.852 179.149 210.597 179.258C209.879 179.321 209.315 179.063 209.26 178.436ZM221.594 166.371C221.666 167.196 221.212 167.579 220.584 167.634C220.01 167.684 219.46 167.389 219.388 166.564L217.685 166.713C217.832 168.399 219.05 169.304 220.717 169.158C222.403 169.01 223.445 167.907 223.297 166.222L221.594 166.371ZM225.872 179.548L225.088 170.582L222.327 170.824L219.399 177.838L218.812 171.132L216.75 171.312L217.534 180.278L220.296 180.036L223.225 173.04L223.81 179.729L225.872 179.548ZM230.493 179.144L230.186 175.629L233.951 175.3L234.259 178.814L236.411 178.626L235.626 169.66L233.474 169.849L233.779 173.327L230.013 173.657L229.709 170.178L227.557 170.366L228.341 179.332L230.493 179.144ZM47.0193 218.464C49.6373 218.235 51.424 216.146 51.184 213.402C50.9439 210.659 48.8215 208.911 46.2035 209.14C43.5855 209.369 41.7989 211.459 42.0389 214.202C42.2789 216.946 44.4013 218.693 47.0193 218.464ZM46.8468 216.492C45.466 216.613 44.3319 215.628 44.1907 214.014C44.0495 212.4 44.9954 211.233 46.3761 211.112C47.7568 210.992 48.891 211.977 49.0322 213.59C49.1734 215.204 48.2275 216.371 46.8468 216.492ZM57.2662 208.353C55.7779 208.483 54.8793 209.158 54.4299 210.01L54.4048 209.723C54.2212 207.625 54.7137 207.058 56.449 206.654L58.2904 206.221C60.2915 205.757 60.9875 205.245 60.8369 203.523L58.6851 203.711C58.7055 203.945 58.6362 204.186 58.1763 204.298L56.087 204.788C53.4139 205.419 52.0625 206.495 52.3747 210.064L52.6665 213.399C52.9003 216.071 55.0538 217.761 57.636 217.536C60.236 217.308 62.0453 215.271 61.8084 212.563C61.5716 209.855 59.4539 208.161 57.2662 208.353ZM57.4634 215.563C56.0468 215.687 54.9501 214.717 54.8152 213.175C54.6818 211.651 55.5918 210.487 57.0084 210.363C58.4609 210.236 59.5265 211.263 59.6567 212.751C59.7884 214.257 58.8979 215.438 57.4634 215.563ZM66.5691 221.09L66.078 215.478C66.8316 216.243 67.8064 216.646 68.8823 216.552C71.3389 216.337 73.018 214.256 72.778 211.513C72.5379 208.769 70.5231 207.012 68.0665 207.227C66.9906 207.321 66.1005 207.887 65.4913 208.772L65.3925 207.642L63.2407 207.83L64.4173 221.279L66.5691 221.09ZM68.4408 214.603C67.06 214.723 65.9259 213.739 65.7847 212.125C65.6435 210.511 66.5894 209.344 67.9701 209.223C69.3508 209.102 70.485 210.087 70.6262 211.701C70.7674 213.315 69.8215 214.482 68.4408 214.603ZM77.5873 215.79C78.8245 215.682 79.8253 215.142 80.3066 214.034L80.4227 215.361L82.5386 215.176L81.9927 208.936C81.8091 206.838 79.9095 206.191 77.937 206.364C75.9287 206.539 74.1064 207.602 74.3103 209.933L76.5518 209.737C76.4639 208.733 77.0998 208.153 78.0861 208.067C79.0185 207.986 79.7718 208.335 79.833 209.035C79.9899 210.828 74.0116 209.616 74.3489 213.471C74.5073 215.282 76.0451 215.925 77.5873 215.79ZM76.5419 213.135C76.4415 211.987 78.6807 211.972 80.0634 211.255L80.0995 211.667C80.2187 213.03 79.1339 213.848 77.8787 213.958C77.1614 214.02 76.5968 213.763 76.5419 213.135ZM86.7322 209.407L86.8734 211.021L88.3079 210.895C89.1866 210.818 89.6187 211.214 89.6767 211.877C89.7301 212.487 89.3827 213.06 88.1095 213.171C86.7647 213.289 86.1476 212.638 86.0503 211.526L83.8985 211.714C84.0931 213.938 85.639 215.086 88.2391 214.858C90.7853 214.635 91.9823 213.446 91.8348 211.761C91.7548 210.846 91.229 210.206 90.2636 209.911C91.036 209.446 91.3419 208.606 91.2745 207.835C91.1553 206.472 89.9516 205.312 87.4233 205.534C84.7694 205.766 83.6343 207.455 83.7943 209.284L85.9461 209.096C85.8473 207.966 86.3888 207.341 87.5723 207.237C88.6841 207.14 89.1731 207.567 89.228 208.195C89.2814 208.804 88.9916 209.209 88.1667 209.281L86.7322 209.407ZM97.8505 214.017C100.469 213.788 102.255 211.698 102.015 208.955C101.775 206.211 99.6528 204.464 97.0348 204.693C94.4168 204.922 92.6301 207.012 92.8701 209.755C93.1101 212.499 95.2325 214.246 97.8505 214.017ZM97.678 212.045C96.2972 212.166 95.1631 211.181 95.0219 209.567C94.8807 207.953 95.8266 206.786 97.2073 206.665C98.5881 206.544 99.7222 207.529 99.8634 209.143C100.005 210.757 99.0587 211.924 97.678 212.045ZM104.242 213.277L108.976 212.863C110.876 212.697 111.929 211.719 111.774 209.944C111.68 208.868 111.043 208.201 110.118 207.957C110.788 207.555 111.184 206.924 111.104 206.01C110.966 204.432 109.787 203.758 108.155 203.901L103.457 204.312L104.242 213.277ZM105.661 205.745L107.669 205.569C108.655 205.483 109.006 205.778 109.064 206.441C109.116 207.033 108.826 207.438 107.84 207.524L105.832 207.7L105.661 205.745ZM105.973 209.313L108.304 209.109C109.147 209.036 109.558 209.397 109.616 210.061C109.677 210.76 109.337 211.205 108.494 211.279L106.163 211.483L105.973 209.313ZM116.683 212.37C117.921 212.261 118.921 211.722 119.403 210.614L119.519 211.941L121.635 211.756L121.089 205.516C120.905 203.418 119.005 202.771 117.033 202.943C115.025 203.119 113.202 204.182 113.406 206.513L115.648 206.317C115.56 205.313 116.196 204.733 117.182 204.647C118.114 204.565 118.868 204.915 118.929 205.614C119.086 207.407 113.108 206.196 113.445 210.051C113.603 211.862 115.141 212.504 116.683 212.37ZM115.638 209.715C115.537 208.567 117.777 208.552 119.159 207.834L119.195 208.247C119.315 209.61 118.23 210.427 116.975 210.537C116.257 210.6 115.693 210.342 115.638 209.715ZM126.064 211.368L125.757 207.854L129.522 207.524L129.83 211.039L131.982 210.85L131.197 201.885L129.045 202.073L129.35 205.552L125.584 205.881L125.28 202.402L123.128 202.591L123.912 211.556L126.064 211.368ZM142.777 209.906L141.993 200.94L139.232 201.182L136.304 208.196L135.717 201.489L133.655 201.67L134.439 210.635L137.201 210.394L140.13 203.398L140.715 210.086L142.777 209.906ZM144.587 203.55C144.724 205.11 145.935 205.944 147.23 206.083L144.444 209.76L146.936 209.542L149.967 205.356L150.307 209.247L152.459 209.059L151.675 200.093L147.748 200.437C145.937 200.595 144.408 201.506 144.587 203.55ZM148.449 204.531C147.463 204.617 146.819 204.276 146.74 203.38C146.673 202.609 147.225 202.109 148.23 202.021L149.664 201.895L149.884 204.406L148.449 204.531ZM156.675 204.173L156.07 195.191L153.739 195.395L154.703 204.345L156.675 204.173ZM156.097 208.921C156.796 208.86 157.3 208.22 157.242 207.556C157.182 206.875 156.576 206.35 155.877 206.411C155.196 206.471 154.672 207.095 154.732 207.776C154.79 208.439 155.415 208.981 156.097 208.921Z" fill="#AD61FF"/>
</svg>
