<svg width="132" height="137" viewBox="0 0 132 137" fill="none" xmlns="http://www.w3.org/2000/svg">
<path d="M110.684 80.909C109.296 79.1193 107.718 77.5755 106.005 76.277C101.788 73.0824 98.9921 68.3652 98.1467 63.1413C97.1936 57.2516 94.612 51.5602 90.3525 46.783C86.0931 42.0059 80.7303 38.7873 74.9952 37.1683C69.8987 35.728 65.5351 32.4151 62.8429 27.8614C61.7486 26.0111 60.3947 24.2745 58.7755 22.6844C49.9429 14.04 35.8718 13.2042 26.0473 20.745C14.3379 29.7309 12.8866 46.5611 22.5031 57.3464C23.6075 58.5851 24.8078 59.6898 26.0859 60.6559C30.2989 63.8467 33.0807 68.5631 33.9265 73.7796C34.8795 79.6694 37.465 85.3573 41.7245 90.1345C45.984 94.9116 51.3467 98.1302 57.0818 99.7492C62.1715 101.182 66.5393 104.484 69.2243 109.037C70.0381 110.417 70.9985 111.736 72.103 112.975C81.7229 123.764 98.6054 124.24 108.87 113.633C117.49 104.742 118.267 90.6676 110.684 80.909Z" fill="#FFC400"/>
<path d="M56.2641 44.5131C53.4856 46.9905 53.2088 49.9804 53.5876 53.0342L54.0166 56.5919C54.3076 58.876 54.1376 60.9228 52.4149 62.4589C50.7478 63.9453 48.7813 63.7536 47.2453 62.0309C45.734 60.336 45.9656 58.1345 47.9384 56.3755L49.2999 55.1615L46.8224 52.383L45.2664 53.7703C41.6821 56.9663 41.939 61.2259 44.689 64.3101C47.439 67.3943 51.5025 68.2599 55.2258 64.9401C57.9209 62.537 58.1421 59.5966 57.7882 56.5706L57.393 52.8831C57.096 50.704 57.1022 48.7533 58.7416 47.2916C60.4087 45.8051 62.1897 46.0126 63.5028 47.4853C64.8902 49.0412 64.8125 50.8561 62.6731 52.7637L61.4783 53.829L63.9557 56.6076L65.2339 55.4679C68.9849 52.1234 68.7099 48.1791 66.059 45.206C63.4825 42.3163 59.904 41.2676 56.2641 44.5131ZM56.5206 77.5797C57.7841 78.9968 59.4517 79.8042 61.2005 79.1925L60.6633 81.6665L63.0664 84.3617L63.9598 80.2734C65.7903 80.5365 67.7149 79.6184 69.6043 77.9338L76.773 71.542C81.5243 67.3055 81.8298 62.8935 78.4109 59.0591C74.9921 55.2247 70.574 55.0244 65.8227 59.2608L58.654 65.6526C53.9027 69.889 53.5972 74.3011 56.5206 77.5797ZM59.5724 75.8562C57.6895 73.7445 57.7972 71.4041 61.1315 68.4311L68.3001 62.0393C71.6344 59.0664 73.9966 59.2545 75.8547 61.3384C77.7375 63.4501 77.6298 65.7905 74.2956 68.7634L67.1269 75.1552C66.1266 76.0471 65.2217 76.6544 64.3845 77.002L65.4101 72.4466L62.9326 69.6681L61.4201 77.2013C60.7488 76.9519 60.1422 76.4953 59.5724 75.8562ZM76.5862 94.3785L70.5413 87.5989L88.8241 71.2973L86.3467 68.5187L65.5076 87.0996L74.03 96.6578L76.5862 94.3785Z" fill="black"/>
</svg>
