<svg width="90" height="93" viewBox="0 0 90 93" fill="none" xmlns="http://www.w3.org/2000/svg">
<path d="M74.8977 55.0251C73.9583 53.8133 72.8899 52.768 71.7298 51.8888C68.8749 49.7257 66.9815 46.5318 66.4091 42.9947C65.7638 39.0068 64.0158 35.1532 61.1317 31.9187C58.2477 28.6841 54.6166 26.5048 50.7334 25.4086C47.2826 24.4334 44.328 22.1902 42.5051 19.1069C41.7642 17.8541 40.8475 16.6783 39.7511 15.6016C33.7707 9.74857 24.2432 9.18267 17.5911 14.2884C9.66277 20.3727 8.68009 31.7684 15.1914 39.071C15.9392 39.9097 16.7519 40.6577 17.6172 41.3119C20.4699 43.4724 22.3533 46.6658 22.926 50.1979C23.5713 54.1858 25.322 58.037 28.206 61.2716C31.0901 64.5062 34.7212 66.6855 38.6043 67.7817C42.0505 68.7516 45.008 70.9875 46.8259 74.0705C47.377 75.0049 48.0273 75.8978 48.7751 76.7364C55.2887 84.0417 66.7197 84.3642 73.6696 77.1826C79.5063 71.1623 80.0321 61.6326 74.8977 55.0251Z" fill="#FFC400"/>
<path d="M38.0675 30.3674C36.1862 32.0449 35.9988 34.0693 36.2552 36.137L36.5457 38.5459C36.7427 40.0925 36.6276 41.4784 35.4612 42.5184C34.3324 43.5249 33.0009 43.3951 31.9609 42.2286C30.9376 41.081 31.0944 39.5904 32.4302 38.3994L33.352 37.5774L31.6746 35.6961L30.621 36.6355C28.1941 38.7994 28.3681 41.6836 30.2301 43.7719C32.092 45.8602 34.8434 46.4463 37.3644 44.1985C39.1893 42.5713 39.3391 40.5804 39.0994 38.5315L38.8318 36.0347C38.6307 34.5593 38.635 33.2385 39.745 32.2488C40.8738 31.2423 42.0797 31.3828 42.9687 32.3799C43.9081 33.4334 43.8556 34.6622 42.4069 35.9539L41.598 36.6752L43.2754 38.5565L44.1408 37.7849C46.6807 35.5203 46.4945 32.8497 44.6996 30.8366C42.955 28.88 40.5321 28.17 38.0675 30.3674ZM38.2412 52.7567C39.0967 53.7161 40.2258 54.2628 41.4099 53.8487L41.0461 55.5238L42.6733 57.3487L43.2782 54.5805C44.5176 54.7586 45.8208 54.1371 47.1001 52.9964L51.9539 48.6685C55.171 45.8001 55.3778 42.8127 53.063 40.2165C50.7481 37.6202 47.7566 37.4846 44.5395 40.353L39.6857 44.6809C36.4686 47.5493 36.2618 50.5367 38.2412 52.7567ZM40.3075 51.5897C39.0326 50.1598 39.1056 48.5752 41.3632 46.5622L46.217 42.2344C48.4746 40.2214 50.074 40.3487 51.3321 41.7597C52.607 43.1896 52.5341 44.7742 50.2765 46.7872L45.4226 51.115C44.7453 51.7189 44.1326 52.1301 43.5657 52.3654L44.2602 49.2811L42.5827 47.3997L41.5585 52.5004C41.1041 52.3315 40.6933 52.0224 40.3075 51.5897ZM51.8275 64.131L47.7345 59.5405L60.1136 48.5028L58.4362 46.6215L44.3262 59.2025L50.0966 65.6743L51.8275 64.131Z" fill="black"/>
</svg>
