<svg width="170" height="114" viewBox="0 0 170 114" fill="none" xmlns="http://www.w3.org/2000/svg">
<path d="M159.195 89.1214C154.36 82.5041 151.737 74.3732 151.71 65.9131C151.704 64.1204 151.11 62.9364 150.167 62.4718C150.164 62.4702 150.161 62.4687 150.158 62.4672C150.154 62.4657 150.148 62.4627 150.145 62.4611C149.921 62.3534 149.671 62.2571 149.396 62.1753C121.542 54.1644 64.9431 26.9838 41.2767 10.253C41.0453 10.0873 40.808 9.95001 40.5821 9.84546C39.6312 9.3888 38.3296 9.66249 36.9157 10.785C30.2959 16.053 22.3087 19.0924 14.1228 19.453C10.6072 19.6089 9.45783 22.0023 11.534 24.8437C16.3689 31.461 18.9918 39.5919 19.0189 48.052C19.0236 49.8557 19.6269 51.0443 20.5778 51.5009C20.8038 51.6133 21.0576 51.708 21.3301 51.7883C49.1825 59.8023 105.781 86.9829 129.449 103.711C129.685 103.875 129.915 104.012 130.141 104.117C130.144 104.118 130.147 104.12 130.15 104.121C130.153 104.123 130.156 104.124 130.163 104.127C131.11 104.575 132.406 104.298 133.813 103.18C140.436 97.9136 148.424 94.8742 156.606 94.5121C160.122 94.3562 161.271 91.9628 159.195 89.1214Z" fill="#FF64B0"/>
<path d="M38.3851 32.4905L40.7481 33.6253C41.8394 30.6542 40.4156 27.6217 37.4164 26.1813C34.1672 24.621 30.5912 25.8956 28.9217 29.3719C27.2523 32.8483 28.4932 36.4362 31.7424 37.9965C34.8325 39.4805 38.1785 38.6267 39.8006 35.7148L37.4375 34.58C36.3047 36.3567 34.4049 36.7027 32.7462 35.9061C30.8149 34.9787 30.0918 32.758 31.1939 30.4631C32.296 28.1682 34.4812 27.3442 36.4125 28.2717C38.0485 29.0574 38.9871 30.6545 38.3851 32.4905ZM43.6651 43.4426L48.1171 34.1722L51.798 35.9399L52.8018 33.8496L43.1679 29.223L42.1641 31.3134L45.8449 33.0811L41.393 42.3515L43.6651 43.4426ZM51.8562 47.6559C53.4922 48.4415 55.2519 48.5036 56.7218 47.3641L55.8053 49.2727L58.032 50.342L61.851 42.3895C63.1168 39.7538 61.3247 37.6629 58.8708 36.4845C56.3714 35.2842 53.4737 35.2627 52.0661 38.1938L54.4292 39.3286C55.1384 37.8517 56.521 37.5929 57.9979 38.3022C59.3839 38.9678 60.1572 40.0941 59.6225 41.2075C58.3786 43.7977 51.8999 37.6666 49.543 42.5744C48.4627 44.8239 49.834 46.6847 51.8562 47.6559ZM51.9261 43.5511C52.8426 41.6425 56.0672 43.7782 58.4459 43.7741L58.0531 44.5921C57.1037 46.5688 54.9768 46.8057 53.2272 45.9655C52.0684 45.409 51.4569 44.5281 51.9261 43.5511ZM65.1465 53.7587L69.5985 44.4883L73.2794 46.256L74.2832 44.1656L64.6493 39.5391L63.6454 41.6295L67.3263 43.3972L62.8744 52.6675L65.1465 53.7587ZM80.5559 61.1588L86.0117 49.798L83.1261 48.4122L73.5691 54.9794L77.9228 45.9135L75.7416 44.866L70.2858 56.2267L73.1714 57.6125L82.7284 51.0454L78.3746 60.1112L80.5559 61.1588ZM94.6292 59.5008L96.9922 60.6356C98.0835 57.6644 96.6598 54.6319 93.6605 53.1916C90.4113 51.6313 86.8353 52.9058 85.1658 56.3822C83.4964 59.8586 84.7373 63.4464 87.9865 65.0068C91.0766 66.4908 94.4226 65.637 96.0447 62.7251L93.6817 61.5902C92.5488 63.367 90.649 63.713 88.9903 62.9164C87.059 61.9889 86.3359 59.7682 87.438 57.4734C88.5401 55.1785 90.7253 54.3545 92.6567 55.282C94.2926 56.0676 95.2312 57.6648 94.6292 59.5008ZM99.9093 70.4529L104.361 61.1825L108.042 62.9502L109.046 60.8598L99.412 56.2333L98.4082 58.3237L102.089 60.0914L97.6371 69.3617L99.9093 70.4529ZM115.319 77.853L120.774 66.4922L117.889 65.1064L108.332 71.6736L112.686 62.6077L110.504 61.5602L105.048 72.9209L107.934 74.3067L117.491 67.7396L113.137 76.8054L115.319 77.853ZM125.769 68.8909L123.497 67.7998L118.041 79.1605L120.314 80.2517L123.183 74.2759L125.744 82.8596L128.63 84.2453L125.849 75.3044L133.676 72.6882L130.654 71.2369L123.347 73.9351L125.769 68.8909ZM132.666 86.4634C134.302 87.249 136.062 87.3111 137.532 86.1716L136.615 88.0802L138.842 89.1495L142.661 81.197C143.927 78.5613 142.135 76.4704 139.681 75.292C137.181 74.0917 134.284 74.0702 132.876 77.0013L135.239 78.1361C135.948 76.6592 137.331 76.4004 138.808 77.1097C140.194 77.7753 140.967 78.9016 140.432 80.015C139.188 82.6052 132.71 76.4741 130.353 81.3819C129.273 83.6314 130.644 85.4922 132.666 86.4634ZM132.736 82.3586C133.652 80.45 136.877 82.5857 139.256 82.5816L138.863 83.3996C137.914 85.3763 135.787 85.6132 134.037 84.773C132.878 84.2165 132.267 83.3356 132.736 82.3586Z" fill="white"/>
</svg>
