<svg width="246" height="168" viewBox="0 0 246 168" fill="none" xmlns="http://www.w3.org/2000/svg">
<path d="M234.044 131.176C226.903 121.402 223.029 109.394 222.989 96.8992C222.98 94.2516 222.103 92.5029 220.71 91.8167C220.705 91.8145 220.701 91.8122 220.696 91.81C220.691 91.8078 220.682 91.8033 220.677 91.801C220.346 91.6419 219.978 91.4997 219.571 91.3789C178.433 79.5476 94.8426 39.4045 59.8898 14.6947C59.5479 14.4501 59.1974 14.2473 58.8639 14.0929C57.4595 13.4184 55.5371 13.8226 53.449 15.4805C43.6722 23.2608 31.8758 27.7498 19.7861 28.2822C14.5939 28.5125 12.8964 32.0474 15.9627 36.2437C23.1033 46.0169 26.9771 58.0254 27.0171 70.5202C27.024 73.1841 27.9151 74.9394 29.3195 75.6139C29.6532 75.7799 30.0282 75.9197 30.4306 76.0383C71.5659 87.8742 155.157 128.017 190.112 152.722C190.461 152.965 190.8 153.168 191.133 153.322C191.138 153.324 191.142 153.327 191.147 153.329C191.152 153.331 191.156 153.333 191.166 153.338C192.565 153.998 194.478 153.59 196.557 151.939C206.339 144.161 218.135 139.672 230.22 139.137C235.412 138.907 237.11 135.372 234.044 131.176Z" fill="#FF64B0"/>
<path d="M55.6032 47.5657L59.0932 49.2417C60.7049 44.8537 58.6022 40.375 54.1726 38.2477C49.3739 35.9432 44.0924 37.8257 41.6268 42.9599C39.1611 48.0942 40.9939 53.3931 45.7926 55.6976C50.3564 57.8893 55.2981 56.6284 57.6938 52.3277L54.2038 50.6517C52.5306 53.2758 49.7249 53.7867 47.2752 52.6103C44.4228 51.2405 43.3549 47.9608 44.9825 44.5715C46.6102 41.1822 49.8376 39.9652 52.69 41.335C55.1061 42.4953 56.4924 44.8542 55.6032 47.5657ZM63.4014 63.741L69.9764 50.0495L75.4127 52.6602L76.8954 49.5729L62.667 42.74L61.1844 45.8273L66.6207 48.438L60.0456 62.1294L63.4014 63.741ZM75.4987 69.9635C77.9149 71.1238 80.5138 71.2156 82.6848 69.5326L81.3311 72.3514L84.6197 73.9307L90.2601 62.1856C92.1295 58.293 89.4828 55.2049 85.8586 53.4644C82.1673 51.6917 77.8877 51.66 75.8088 55.989L79.2988 57.665C80.3463 55.4837 82.3882 55.1015 84.5694 56.149C86.6164 57.1321 87.7585 58.7955 86.9688 60.4398C85.1317 64.2654 75.5633 55.2103 72.0824 62.4587C70.4869 65.7809 72.5121 68.5292 75.4987 69.9635ZM75.6019 63.9011C76.9556 61.0823 81.7179 64.2366 85.231 64.2305L84.6509 65.4386C83.2488 68.3581 80.1075 68.7078 77.5236 67.467C75.8122 66.6451 74.909 65.3441 75.6019 63.9011ZM95.1273 78.9768L101.702 65.2853L107.139 67.896L108.621 64.8087L94.3929 57.9758L92.9103 61.0631L98.3466 63.6738L91.7715 77.3652L95.1273 78.9768ZM117.885 89.906L125.943 73.1272L121.681 71.0806L107.567 80.7796L113.997 67.3902L110.775 65.8431L102.717 82.6218L106.979 84.6685L121.094 74.9695L114.664 88.3589L117.885 89.906ZM138.67 87.4573L142.16 89.1333C143.772 84.7452 141.669 80.2665 137.24 78.1393C132.441 75.8348 127.159 77.7172 124.694 82.8515C122.228 87.9857 124.061 93.2846 128.86 95.5891C133.423 97.7808 138.365 96.5199 140.761 92.2192L137.271 90.5432C135.598 93.1673 132.792 93.6783 130.342 92.5018C127.49 91.132 126.422 87.8523 128.05 84.463C129.677 81.0737 132.905 79.8567 135.757 81.2265C138.173 82.3868 139.559 84.7457 138.67 87.4573ZM146.468 103.632L153.043 89.941L158.48 92.5517L159.962 89.4644L145.734 82.6315L144.251 85.7188L149.688 88.3295L143.113 102.021L146.468 103.632ZM169.226 114.562L177.284 97.7829L173.022 95.7363L158.908 105.435L165.338 92.0459L162.116 90.4988L154.059 107.277L158.32 109.324L172.435 99.6252L166.005 113.015L169.226 114.562ZM184.661 101.326L181.305 99.7141L173.248 116.493L176.603 118.104L180.842 109.279L184.624 121.956L188.885 124.003L184.779 110.798L196.339 106.934L191.876 104.79L181.084 108.775L184.661 101.326ZM194.847 127.278C197.263 128.439 199.862 128.53 202.033 126.847L200.679 129.666L203.968 131.246L209.608 119.5C211.478 115.608 208.831 112.52 205.207 110.779C201.515 109.007 197.236 108.975 195.157 113.304L198.647 114.98C199.694 112.799 201.736 112.416 203.917 113.464C205.964 114.447 207.107 116.11 206.317 117.755C204.48 121.58 194.911 112.525 191.43 119.774C189.835 123.096 191.86 125.844 194.847 127.278ZM194.95 121.216C196.304 118.397 201.066 121.551 204.579 121.545L203.999 122.753C202.597 125.673 199.456 126.023 196.872 124.782C195.16 123.96 194.257 122.659 194.95 121.216Z" fill="white"/>
</svg>
