<svg width="244" height="248" viewBox="0 0 244 248" fill="none" xmlns="http://www.w3.org/2000/svg">
<path d="M53.7005 233.249L229.595 54.3252C231.81 52.0717 232.65 48.8008 231.792 45.7414L225.649 23.7933C224.836 20.8952 222.54 18.6373 219.628 17.8745L197.578 12.107C194.505 11.3084 191.252 12.2008 189.037 14.4543L13.1429 193.378C10.9276 195.632 10.0872 198.903 10.9455 201.962L17.0196 223.653C17.8743 226.709 20.2937 229.088 23.3636 229.89L45.1591 235.589C48.2254 236.395 51.4852 235.503 53.7005 233.249Z" fill="#AD61FF"/>
<path d="M42.4696 217.21L49.1505 210.414C51.8646 207.653 52.2606 204.701 49.7121 202.196C48.0397 200.552 46.0644 200.437 44.1512 201.428C44.7955 199.816 44.5715 198.239 43.1645 196.856C40.8549 194.585 38.0693 195.135 35.6683 197.578L29.1962 204.161L42.4696 217.21ZM36.929 200.331C38.5471 198.685 39.7565 198.517 40.9511 199.691C42.0661 200.787 41.9982 202.078 40.3801 203.724L37.1702 206.989L33.7191 203.596L36.929 200.331ZM42.9196 205.176C44.3811 203.689 45.8016 203.572 47.0227 204.773C48.2439 205.973 48.1507 207.395 46.6893 208.882L42.9574 212.678L39.1877 208.972L42.9196 205.176ZM62.283 185.585C62.0171 185.272 61.7512 184.958 61.4326 184.645C57.3709 180.652 51.8163 180.621 48.1105 184.39C44.4047 188.16 44.5311 193.713 48.5927 197.706C52.6544 201.699 58.209 201.73 61.9148 197.961C64.916 194.908 65.6733 191.111 63.748 187.6L60.9295 190.467C61.6022 192.172 61.2751 193.939 59.6831 195.558C57.4909 197.788 54.6756 197.944 52.0529 195.992L62.283 185.585ZM50.4466 186.687C52.5344 184.563 55.2971 184.408 57.8402 186.281L50.1676 194.086C48.2508 191.575 48.3327 188.837 50.4466 186.687ZM63.3664 169.296C61.1221 171.579 60.5389 174.19 61.2161 176.422L60.7117 175.926C57.2871 172.56 57.086 170.587 59.5063 167.329L61.9262 164.017C64.3469 160.812 64.6754 159.203 62.5242 156.984L59.9145 159.639C60.2601 160.03 60.4225 160.556 59.6418 161.615L56.9353 165.271C53.5269 169.959 53.2151 173.516 58.4183 178.631L63.117 183.25C67.0725 187.139 72.7307 186.959 76.4626 183.163C80.2206 179.34 80.2778 173.706 76.2692 169.765C72.2606 165.825 66.6547 165.951 63.3664 169.296ZM74.0203 180.762C71.6976 183.124 68.2753 183.101 65.6737 180.543C63.0986 178.012 62.9902 174.564 65.3129 172.202C67.6617 169.812 71.1375 169.941 73.6595 172.42C76.208 174.925 76.369 178.372 74.0203 180.762ZM84.6856 162.107L82.2433 159.706L75.9277 166.13L78.37 168.531L84.6856 162.107ZM97.3936 161.871C99.2726 159.96 100.2 157.53 99.3087 154.931L101.539 157.124L104.096 154.522L94.8048 145.388C91.7253 142.361 87.9475 143.867 85.129 146.734C82.2583 149.654 80.845 153.694 84.2695 157.06L86.9836 154.3C85.2581 152.603 85.5564 150.547 87.2528 148.822C88.8447 147.202 90.788 146.659 92.0888 147.938C95.1152 150.913 83.4533 157.041 89.1874 162.678C91.8156 165.262 95.071 164.234 97.3936 161.871ZM91.6901 159.814C89.4601 157.622 93.9844 154.134 95.1143 150.808L96.07 151.747C98.3795 154.018 97.6951 157.104 95.6856 159.148C94.3547 160.502 92.8316 160.936 91.6901 159.814ZM109.603 148.92L104.108 143.518L110.372 137.146L115.867 142.549L118.476 139.894L105.203 126.845L102.593 129.5L107.956 134.772L101.692 141.143L96.33 135.871L93.7202 138.526L106.994 151.575L109.603 148.92ZM125.635 133.144C127.514 131.232 128.441 128.802 127.55 126.204L129.78 128.396L132.337 125.795L123.046 116.66C119.966 113.633 116.188 115.14 113.37 118.007C110.499 120.927 109.086 124.966 112.51 128.333L115.225 125.572C113.499 123.876 113.797 121.82 115.494 120.094C117.086 118.475 119.029 117.932 120.33 119.211C123.356 122.186 111.694 128.314 117.428 133.951C120.057 136.534 123.312 135.506 125.635 133.144ZM119.931 131.086C117.701 128.894 122.225 125.407 123.355 122.081L124.311 123.02C126.621 125.291 125.936 128.376 123.927 130.42C122.596 131.774 121.073 132.208 119.931 131.086ZM145.882 112.016L132.609 98.9673L122.953 108.79C128.9 114.688 131 117.118 131.829 118.559C132.576 119.816 132.427 120.818 131.722 121.535L131.514 121.747L133.956 124.148L134.426 123.67C136.513 121.546 136.786 119.517 134.015 115.697C132.791 114.076 130.824 111.881 127.77 108.775L132.441 104.023L143.273 114.671L145.882 112.016ZM160.807 96.8342L147.534 83.7856L144.219 87.157L148.835 103.649L138.243 93.2362L135.738 95.7847L149.011 108.833L152.325 105.462L147.71 88.9699L158.302 99.3827L160.807 96.8342ZM169.31 88.1844L158.479 77.5367L162.707 73.2361L160.265 70.8352L149.199 82.091L151.642 84.492L155.87 80.1914L166.701 90.8391L169.31 88.1844ZM187.009 70.1808L173.736 57.1321L170.421 60.5036L175.037 76.9956L164.445 66.5828L161.94 69.1313L175.213 82.18L178.528 78.8085L173.912 62.3164L184.504 72.7293L187.009 70.1808ZM179.473 51.2963L176.863 53.951L190.136 66.9996L192.746 64.345L185.764 57.4814L198.983 58.0003L202.298 54.6288L188.474 54.2467L188.555 42.058L185.084 45.5887L185.366 57.0899L179.473 51.2963ZM207.325 50.0463C209.204 48.135 210.131 45.7052 209.24 43.1068L211.47 45.299L214.027 42.6974L204.736 33.5633C201.656 30.536 197.879 32.0424 195.06 34.9095C192.189 37.8296 190.776 41.8693 194.201 45.2358L196.915 42.4749C195.189 40.7786 195.488 38.7228 197.184 36.9973C198.776 35.3779 200.719 34.8348 202.02 36.1136C205.046 39.0887 193.384 45.2165 199.119 50.8535C201.747 53.4371 205.002 52.409 207.325 50.0463ZM201.621 47.9891C199.391 45.7969 203.915 42.3099 205.045 38.9834L206.001 39.9229C208.311 42.1934 207.626 45.2791 205.617 47.3232C204.286 48.6771 202.763 49.1113 201.621 47.9891Z" fill="white"/>
</svg>
