<svg width="166" height="169" viewBox="0 0 166 169" fill="none" xmlns="http://www.w3.org/2000/svg">
<path d="M36.9818 158.36L156.079 37.2118C157.579 35.686 158.148 33.4713 157.566 31.3998L153.407 16.5388C152.857 14.5766 151.302 13.0478 149.33 12.5313L134.401 8.62616C132.319 8.08541 130.117 8.68966 128.617 10.2155L9.52049 131.364C8.02053 132.889 7.4515 135.104 8.03268 137.176L12.1454 151.863C12.7241 153.932 14.3623 155.542 16.4409 156.085L31.1985 159.944C33.2747 160.49 35.4819 159.886 36.9818 158.36Z" fill="#AD61FF"/>
<path d="M29.3614 147.485L33.885 142.883C35.7227 141.014 35.9908 139.015 34.2652 137.319C33.1328 136.206 31.7954 136.128 30.5 136.799C30.9362 135.708 30.7845 134.64 29.8319 133.703C28.2681 132.166 26.3819 132.538 24.7563 134.192L20.374 138.65L29.3614 147.485ZM25.6099 136.056C26.7055 134.942 27.5244 134.828 28.3332 135.623C29.0882 136.365 29.0422 137.239 27.9466 138.353L25.7732 140.564L23.4365 138.267L25.6099 136.056ZM29.6661 139.337C30.6556 138.33 31.6174 138.251 32.4443 139.064C33.2711 139.876 33.208 140.839 32.2185 141.846L29.6916 144.416L27.1392 141.907L29.6661 139.337ZM42.7769 126.072C42.5969 125.86 42.4168 125.647 42.2011 125.435C39.451 122.732 35.69 122.71 33.1808 125.263C30.6716 127.815 30.7572 131.575 33.5073 134.279C36.2574 136.982 40.0184 137.004 42.5276 134.451C44.5597 132.384 45.0725 129.813 43.7689 127.436L41.8605 129.377C42.3159 130.532 42.0944 131.728 41.0165 132.824C39.5322 134.334 37.626 134.44 35.8501 133.118L42.7769 126.072ZM34.7626 126.818C36.1762 125.38 38.0468 125.275 39.7687 126.543L34.5736 131.828C33.2758 130.128 33.3313 128.274 34.7626 126.818ZM43.5105 115.043C41.9908 116.589 41.596 118.357 42.0545 119.868L41.713 119.532C39.3942 117.252 39.2581 115.917 40.8968 113.711L42.5353 111.469C44.1744 109.298 44.3968 108.209 42.9402 106.706L41.1732 108.504C41.4072 108.769 41.5172 109.125 40.9886 109.842L39.156 112.317C36.8482 115.492 36.6371 117.9 40.1601 121.363L43.3416 124.491C46.0199 127.124 49.8509 127.002 52.3778 124.432C54.9223 121.843 54.961 118.029 52.2469 115.36C49.5327 112.692 45.7369 112.778 43.5105 115.043ZM50.7241 122.806C49.1515 124.406 46.8342 124.39 45.0727 122.658C43.3292 120.944 43.2558 118.61 44.8284 117.01C46.4188 115.392 48.7722 115.479 50.4798 117.158C52.2054 118.854 52.3145 121.188 50.7241 122.806ZM57.9455 110.175L56.2919 108.549L52.0156 112.899L53.6693 114.525L57.9455 110.175ZM66.5501 110.015C67.8223 108.721 68.4499 107.076 67.8467 105.316L69.3566 106.801L71.0883 105.039L64.7972 98.8546C62.7121 96.8048 60.1542 97.8248 58.2458 99.7661C56.302 101.743 55.3451 104.479 57.6638 106.758L59.5015 104.889C58.3332 103.74 58.5352 102.348 59.6838 101.18C60.7616 100.083 62.0775 99.7155 62.9582 100.581C65.0073 102.596 57.1112 106.745 60.9937 110.562C62.7732 112.311 64.9774 111.615 66.5501 110.015ZM62.6882 108.622C61.1784 107.138 64.2417 104.777 65.0067 102.525L65.6538 103.161C67.2176 104.698 66.7542 106.787 65.3936 108.171C64.4924 109.088 63.4611 109.382 62.6882 108.622ZM74.8172 101.246L71.0965 97.5883L75.3373 93.2744L79.0581 96.9321L80.8251 95.1347L71.8378 86.2995L70.0708 88.097L73.7016 91.6664L69.4608 95.9803L65.8299 92.4109L64.0628 94.2084L73.0502 103.044L74.8172 101.246ZM85.6718 90.564C86.9441 89.2698 87.5717 87.6247 86.9685 85.8653L88.4784 87.3496L90.2101 85.5881L83.9189 79.4035C81.8339 77.3537 79.2759 78.3737 77.3676 80.3149C75.4238 82.2922 74.4669 85.0274 76.7856 87.3069L78.6233 85.4375C77.455 84.2889 77.657 82.8969 78.8055 81.7286C79.8834 80.6321 81.1992 80.2644 82.08 81.1303C84.1291 83.1447 76.2329 87.2937 80.1155 91.1105C81.895 92.8599 84.0992 92.1638 85.6718 90.564ZM81.81 89.1711C80.3001 87.6868 83.3635 85.3257 84.1285 83.0734L84.7756 83.7095C86.3394 85.2468 85.876 87.3362 84.5154 88.7202C83.6142 89.6369 82.5829 89.9309 81.81 89.1711ZM99.3814 76.2587L90.3941 67.4236L83.8561 74.0742C87.8827 78.068 89.3048 79.7135 89.8657 80.689C90.3721 81.5402 90.2709 82.2184 89.7938 82.7037L89.6524 82.8475L91.3061 84.4732L91.6242 84.1496C93.0378 82.7116 93.2221 81.3376 91.3464 78.7514C90.5171 77.6534 89.1855 76.1676 87.1178 74.0642L90.2807 70.8467L97.6144 78.0562L99.3814 76.2587ZM109.487 65.9793L100.5 57.1441L98.2554 59.4269L101.381 70.5935L94.2089 63.5431L92.5125 65.2687L101.5 74.1038L103.744 71.821L100.619 60.6544L107.791 67.7048L109.487 65.9793ZM115.244 60.1225L107.911 52.913L110.773 50.0011L109.12 48.3755L101.627 55.9967L103.281 57.6224L106.144 54.7105L113.477 61.92L115.244 60.1225ZM127.228 47.9324L118.241 39.0972L115.997 41.38L119.122 52.5467L111.95 45.4962L110.254 47.2218L119.241 56.057L121.485 53.7742L118.36 42.6075L125.532 49.658L127.228 47.9324ZM122.125 35.1458L120.358 36.9433L129.346 45.7785L131.113 43.981L126.385 39.3337L135.336 39.685L137.58 37.4023L128.22 37.1435L128.275 28.8906L125.924 31.2813L126.116 39.0686L122.125 35.1458ZM140.984 34.2995C142.256 33.0053 142.884 31.3602 142.28 29.6008L143.79 31.0851L145.522 29.3236L139.231 23.1389C137.146 21.0892 134.588 22.1092 132.679 24.0504C130.736 26.0276 129.779 28.7629 132.097 31.0423L133.935 29.173C132.767 28.0244 132.969 26.6324 134.117 25.4641C135.195 24.3676 136.511 23.9999 137.392 24.8657C139.441 26.8801 131.545 31.0292 135.427 34.846C137.207 36.5954 139.411 35.8993 140.984 34.2995ZM137.122 32.9066C135.612 31.4223 138.675 29.0612 139.44 26.8089L140.087 27.445C141.651 28.9823 141.188 31.0717 139.827 32.4557C138.926 33.3724 137.895 33.6664 137.122 32.9066Z" fill="white"/>
</svg>
